<svg width="427" height="40" viewBox="0 0 427 40" fill="none" xmlns="http://www.w3.org/2000/svg">
<mask id="path-1-outside-1_3_2" maskUnits="userSpaceOnUse" x="0" y="0" width="427" height="40" fill="black">
<rect fill="white" width="427" height="40"/>
<path d="M26.982 1.2L27.198 1.686L46.206 39H17.046L20.178 32.79H36L23.85 8.976L8.568 39H1.494L1.602 38.73L19.422 3.846C19.818 3.018 20.394 2.37 21.15 1.902C21.942 1.434 22.788 1.2 23.688 1.2H26.982ZM84.0039 1.2C84.8679 1.2 85.6059 1.524 86.2179 2.172C86.8659 2.784 87.1899 3.522 87.1899 4.386V39H84.0039C83.1399 39 82.3839 38.694 81.7359 38.082C81.1239 37.434 80.8179 36.678 80.8179 35.814V1.2H84.0039ZM155.194 4.386C155.194 3.522 155.5 2.784 156.112 2.172C156.76 1.524 157.516 1.2 158.38 1.2H161.566V39H154.816L154.762 38.946L133.702 10.542V19.992C133.702 20.892 133.378 21.648 132.73 22.26C132.118 22.872 131.38 23.178 130.516 23.178H127.33V1.2H134.08L134.134 1.254L155.194 29.658V4.386ZM237.865 12.216C237.865 14.592 237.145 16.752 235.705 18.696C234.301 20.604 232.483 21.936 230.251 22.692L238.567 39H233.923C233.167 39 232.465 38.802 231.817 38.406C231.169 38.01 230.683 37.47 230.359 36.786L223.447 23.178H208.057V35.76C208.057 36.66 207.733 37.434 207.085 38.082C206.473 38.694 205.735 39 204.871 39H201.685V17.022L226.849 16.968C228.181 16.968 229.315 16.5 230.251 15.564C231.187 14.628 231.655 13.512 231.655 12.216C231.655 11.352 231.439 10.56 231.007 9.84C230.575 9.084 229.981 8.49 229.225 8.058C228.505 7.626 227.713 7.41 226.849 7.41H204.925C204.313 7.41 203.755 7.266 203.251 6.978C202.783 6.69 202.405 6.294 202.117 5.79C201.829 5.286 201.685 4.746 201.685 4.17V1.2H226.525C226.597 1.2 226.705 1.2 226.849 1.2C229.909 1.2 232.501 2.28 234.625 4.44C236.785 6.564 237.865 9.156 237.865 12.216ZM278.172 1.2C279.036 1.2 279.774 1.524 280.386 2.172C281.034 2.784 281.358 3.522 281.358 4.386V39H278.172C277.308 39 276.552 38.694 275.904 38.082C275.292 37.434 274.986 36.678 274.986 35.814V1.2H278.172ZM334.546 1.2C337.966 1.2 341.116 2.046 343.996 3.738C346.912 5.43 349.216 7.734 350.908 10.65C352.6 13.53 353.446 16.68 353.446 20.1C353.446 23.52 352.6 26.688 350.908 29.604C349.216 32.484 346.912 34.77 343.996 36.462C341.116 38.154 337.966 39 334.546 39C331.126 39 327.958 38.154 325.042 36.462C322.162 34.77 319.876 32.484 318.184 29.604C316.492 26.688 315.646 23.52 315.646 20.1C315.646 17.544 316.15 15.096 317.158 12.756C318.166 10.416 319.498 8.4 321.154 6.708C322.846 5.016 324.862 3.684 327.202 2.712C329.542 1.704 331.99 1.2 334.546 1.2ZM325.582 29.064C328.066 31.548 331.054 32.79 334.546 32.79C338.038 32.79 341.026 31.548 343.51 29.064C345.994 26.58 347.236 23.592 347.236 20.1C347.236 16.608 345.994 13.62 343.51 11.136C341.026 8.652 338.038 7.41 334.546 7.41C331.054 7.41 328.066 8.652 325.582 11.136C323.098 13.62 321.856 16.608 321.856 20.1C321.856 23.592 323.098 26.58 325.582 29.064ZM419.287 4.386C419.287 3.522 419.593 2.784 420.205 2.172C420.853 1.524 421.609 1.2 422.473 1.2H425.659V39H418.909L418.855 38.946L397.795 10.542V19.992C397.795 20.892 397.471 21.648 396.823 22.26C396.211 22.872 395.473 23.178 394.609 23.178H391.423V1.2H398.173L398.227 1.254L419.287 29.658V4.386Z"/>
</mask>
<path d="M26.982 1.2L27.198 1.686L46.206 39H17.046L20.178 32.79H36L23.85 8.976L8.568 39H1.494L1.602 38.73L19.422 3.846C19.818 3.018 20.394 2.37 21.15 1.902C21.942 1.434 22.788 1.2 23.688 1.2H26.982ZM84.0039 1.2C84.8679 1.2 85.6059 1.524 86.2179 2.172C86.8659 2.784 87.1899 3.522 87.1899 4.386V39H84.0039C83.1399 39 82.3839 38.694 81.7359 38.082C81.1239 37.434 80.8179 36.678 80.8179 35.814V1.2H84.0039ZM155.194 4.386C155.194 3.522 155.5 2.784 156.112 2.172C156.76 1.524 157.516 1.2 158.38 1.2H161.566V39H154.816L154.762 38.946L133.702 10.542V19.992C133.702 20.892 133.378 21.648 132.73 22.26C132.118 22.872 131.38 23.178 130.516 23.178H127.33V1.2H134.08L134.134 1.254L155.194 29.658V4.386ZM237.865 12.216C237.865 14.592 237.145 16.752 235.705 18.696C234.301 20.604 232.483 21.936 230.251 22.692L238.567 39H233.923C233.167 39 232.465 38.802 231.817 38.406C231.169 38.01 230.683 37.47 230.359 36.786L223.447 23.178H208.057V35.76C208.057 36.66 207.733 37.434 207.085 38.082C206.473 38.694 205.735 39 204.871 39H201.685V17.022L226.849 16.968C228.181 16.968 229.315 16.5 230.251 15.564C231.187 14.628 231.655 13.512 231.655 12.216C231.655 11.352 231.439 10.56 231.007 9.84C230.575 9.084 229.981 8.49 229.225 8.058C228.505 7.626 227.713 7.41 226.849 7.41H204.925C204.313 7.41 203.755 7.266 203.251 6.978C202.783 6.69 202.405 6.294 202.117 5.79C201.829 5.286 201.685 4.746 201.685 4.17V1.2H226.525C226.597 1.2 226.705 1.2 226.849 1.2C229.909 1.2 232.501 2.28 234.625 4.44C236.785 6.564 237.865 9.156 237.865 12.216ZM278.172 1.2C279.036 1.2 279.774 1.524 280.386 2.172C281.034 2.784 281.358 3.522 281.358 4.386V39H278.172C277.308 39 276.552 38.694 275.904 38.082C275.292 37.434 274.986 36.678 274.986 35.814V1.2H278.172ZM334.546 1.2C337.966 1.2 341.116 2.046 343.996 3.738C346.912 5.43 349.216 7.734 350.908 10.65C352.6 13.53 353.446 16.68 353.446 20.1C353.446 23.52 352.6 26.688 350.908 29.604C349.216 32.484 346.912 34.77 343.996 36.462C341.116 38.154 337.966 39 334.546 39C331.126 39 327.958 38.154 325.042 36.462C322.162 34.77 319.876 32.484 318.184 29.604C316.492 26.688 315.646 23.52 315.646 20.1C315.646 17.544 316.15 15.096 317.158 12.756C318.166 10.416 319.498 8.4 321.154 6.708C322.846 5.016 324.862 3.684 327.202 2.712C329.542 1.704 331.99 1.2 334.546 1.2ZM325.582 29.064C328.066 31.548 331.054 32.79 334.546 32.79C338.038 32.79 341.026 31.548 343.51 29.064C345.994 26.58 347.236 23.592 347.236 20.1C347.236 16.608 345.994 13.62 343.51 11.136C341.026 8.652 338.038 7.41 334.546 7.41C331.054 7.41 328.066 8.652 325.582 11.136C323.098 13.62 321.856 16.608 321.856 20.1C321.856 23.592 323.098 26.58 325.582 29.064ZM419.287 4.386C419.287 3.522 419.593 2.784 420.205 2.172C420.853 1.524 421.609 1.2 422.473 1.2H425.659V39H418.909L418.855 38.946L397.795 10.542V19.992C397.795 20.892 397.471 21.648 396.823 22.26C396.211 22.872 395.473 23.178 394.609 23.178H391.423V1.2H398.173L398.227 1.254L419.287 29.658V4.386Z" fill="#1F1F1F"/>
<path d="M26.982 1.2L27.8958 0.793863L27.6319 0.199997H26.982V1.2ZM27.198 1.686L26.2842 2.09213L26.2949 2.11632L26.307 2.1399L27.198 1.686ZM46.206 39V40H47.8377L47.097 38.5461L46.206 39ZM17.046 39L16.1531 38.5497L15.4217 40H17.046V39ZM20.178 32.79V31.79H19.5624L19.2851 32.3397L20.178 32.79ZM36 32.79V33.79H37.6328L36.8908 32.3355L36 32.79ZM23.85 8.976L24.7408 8.52153L23.8489 6.77356L22.9588 8.52238L23.85 8.976ZM8.568 39V40H9.18109L9.4592 39.4536L8.568 39ZM1.494 39L0.565523 38.6286L0.0169758 40H1.494V39ZM1.602 38.73L0.711466 38.2751L0.690576 38.316L0.673522 38.3586L1.602 38.73ZM19.422 3.846L20.3125 4.30092L20.3185 4.28926L20.3241 4.27746L19.422 3.846ZM21.15 1.902L20.6413 1.04107L20.6324 1.04631L20.6236 1.05173L21.15 1.902ZM26.0682 1.60613L26.2842 2.09213L28.1118 1.27986L27.8958 0.793863L26.0682 1.60613ZM26.307 2.1399L45.315 39.4539L47.097 38.5461L28.0891 1.23209L26.307 2.1399ZM46.206 38H17.046V40H46.206V38ZM17.9389 39.4503L21.0709 33.2403L19.2851 32.3397L16.1531 38.5497L17.9389 39.4503ZM20.178 33.79H36V31.79H20.178V33.79ZM36.8908 32.3355L24.7408 8.52153L22.9592 9.43047L35.1092 33.2445L36.8908 32.3355ZM22.9588 8.52238L7.6768 38.5464L9.4592 39.4536L24.7412 9.42961L22.9588 8.52238ZM8.568 38H1.494V40H8.568V38ZM2.42248 39.3714L2.53048 39.1014L0.673522 38.3586L0.565523 38.6286L2.42248 39.3714ZM2.49253 39.1849L20.3125 4.30092L18.5315 3.39108L0.711466 38.2751L2.49253 39.1849ZM20.3241 4.27746C20.6404 3.61627 21.0886 3.11613 21.6764 2.75226L20.6236 1.05173C19.6994 1.62387 18.9956 2.41973 18.5199 3.41454L20.3241 4.27746ZM21.6587 2.76292C22.3002 2.38385 22.9711 2.2 23.688 2.2V0.199997C22.6049 0.199997 21.5838 0.484144 20.6413 1.04107L21.6587 2.76292ZM23.688 2.2H26.982V0.199997H23.688V2.2ZM86.2179 2.172L85.4909 2.85862L85.5105 2.87939L85.5313 2.89901L86.2179 2.172ZM87.1899 39V40H88.1899V39H87.1899ZM81.7359 38.082L81.0089 38.7686L81.0285 38.7894L81.0493 38.809L81.7359 38.082ZM80.8179 1.2V0.199997H79.8179V1.2H80.8179ZM84.0039 2.2C84.5831 2.2 85.061 2.40351 85.4909 2.85862L86.9449 1.48537C86.1507 0.644488 85.1527 0.199997 84.0039 0.199997V2.2ZM85.5313 2.89901C85.9864 3.32884 86.1899 3.80679 86.1899 4.386H88.1899C88.1899 3.23721 87.7454 2.23916 86.9045 1.44498L85.5313 2.89901ZM86.1899 4.386V39H88.1899V4.386H86.1899ZM87.1899 38H84.0039V40H87.1899V38ZM84.0039 38C83.404 38 82.8914 37.7978 82.4225 37.355L81.0493 38.809C81.8764 39.5902 82.8758 40 84.0039 40V38ZM82.4629 37.3954C82.0201 36.9265 81.8179 36.4139 81.8179 35.814H79.8179C79.8179 36.9421 80.2277 37.9415 81.0089 38.7686L82.4629 37.3954ZM81.8179 35.814V1.2H79.8179V35.814H81.8179ZM80.8179 2.2H84.0039V0.199997H80.8179V2.2ZM161.566 1.2H162.566V0.199997H161.566V1.2ZM161.566 39V40H162.566V39H161.566ZM154.816 39L154.109 39.7071L154.401 40H154.816V39ZM154.762 38.946L153.958 39.5416L154.002 39.6009L154.055 39.6531L154.762 38.946ZM133.702 10.542L134.505 9.94641L132.702 7.51428V10.542H133.702ZM132.73 22.26L132.043 21.533L132.033 21.5428L132.023 21.5529L132.73 22.26ZM127.33 23.178H126.33V24.178H127.33V23.178ZM127.33 1.2V0.199997H126.33V1.2H127.33ZM134.08 1.2L134.787 0.492891L134.494 0.199997H134.08V1.2ZM134.134 1.254L134.937 0.658404L134.893 0.599096L134.841 0.54689L134.134 1.254ZM155.194 29.658L154.39 30.2536L156.194 32.6857V29.658H155.194ZM156.194 4.386C156.194 3.78773 156.394 3.30394 156.819 2.8791L155.405 1.46489C154.605 2.26406 154.194 3.25626 154.194 4.386H156.194ZM156.819 2.8791C157.292 2.40602 157.798 2.2 158.38 2.2V0.199997C157.233 0.199997 156.227 0.64198 155.405 1.46489L156.819 2.8791ZM158.38 2.2H161.566V0.199997H158.38V2.2ZM160.566 1.2V39H162.566V1.2H160.566ZM161.566 38H154.816V40H161.566V38ZM155.523 38.2929L155.469 38.2389L154.055 39.6531L154.109 39.7071L155.523 38.2929ZM155.565 38.3504L134.505 9.94641L132.898 11.1376L153.958 39.5416L155.565 38.3504ZM132.702 10.542V19.992H134.702V10.542H132.702ZM132.702 19.992C132.702 20.6199 132.489 21.112 132.043 21.533L133.416 22.987C134.266 22.184 134.702 21.1641 134.702 19.992H132.702ZM132.023 21.5529C131.598 21.9777 131.114 22.178 130.516 22.178V24.178C131.645 24.178 132.638 23.7663 133.437 22.9671L132.023 21.5529ZM130.516 22.178H127.33V24.178H130.516V22.178ZM128.33 23.178V1.2H126.33V23.178H128.33ZM127.33 2.2H134.08V0.199997H127.33V2.2ZM133.373 1.9071L133.427 1.9611L134.841 0.54689L134.787 0.492891L133.373 1.9071ZM133.33 1.84959L154.39 30.2536L155.997 29.0624L134.937 0.658404L133.33 1.84959ZM156.194 29.658V4.386H154.194V29.658H156.194ZM235.705 18.696L234.902 18.1008L234.9 18.1033L235.705 18.696ZM230.251 22.692L229.93 21.7449L228.835 22.1159L229.36 23.1463L230.251 22.692ZM238.567 39V40H240.2L239.458 38.5457L238.567 39ZM230.359 36.786L231.263 36.3579L231.257 36.3454L231.251 36.3331L230.359 36.786ZM223.447 23.178L224.339 22.7251L224.061 22.178H223.447V23.178ZM208.057 23.178V22.178H207.057V23.178H208.057ZM207.085 38.082L207.792 38.7891L207.792 38.7891L207.085 38.082ZM201.685 39H200.685V40H201.685V39ZM201.685 17.022L201.683 16.022L200.685 16.0241V17.022H201.685ZM226.849 16.968L226.849 15.968L226.847 15.968L226.849 16.968ZM231.007 9.84L230.139 10.3361L230.144 10.3454L230.15 10.3545L231.007 9.84ZM229.225 8.058L228.711 8.91549L228.72 8.92097L228.729 8.92624L229.225 8.058ZM203.251 6.978L202.727 7.82966L202.741 7.83818L202.755 7.84624L203.251 6.978ZM202.117 5.79L202.985 5.29386L202.985 5.29386L202.117 5.79ZM201.685 1.2V0.199997H200.685V1.2H201.685ZM234.625 4.44L233.912 5.14114L233.918 5.14713L233.924 5.15302L234.625 4.44ZM236.865 12.216C236.865 14.3735 236.216 16.3256 234.902 18.1008L236.509 19.2912C238.074 17.1784 238.865 14.8105 238.865 12.216H236.865ZM234.9 18.1033C233.616 19.8472 231.967 21.0549 229.93 21.7449L230.572 23.6391C232.999 22.8171 234.986 21.3608 236.511 19.2887L234.9 18.1033ZM229.36 23.1463L237.676 39.4543L239.458 38.5457L231.142 22.2377L229.36 23.1463ZM238.567 38H233.923V40H238.567V38ZM233.923 38C233.352 38 232.83 37.8532 232.339 37.5527L231.296 39.2593C232.1 39.7508 232.982 40 233.923 40V38ZM232.339 37.5527C231.856 37.2579 231.503 36.8654 231.263 36.3579L229.455 37.2141C229.863 38.0746 230.482 38.7621 231.296 39.2593L232.339 37.5527ZM231.251 36.3331L224.339 22.7251L222.556 23.6309L229.468 37.2389L231.251 36.3331ZM223.447 22.178H208.057V24.178H223.447V22.178ZM207.057 23.178V35.76H209.057V23.178H207.057ZM207.057 35.76C207.057 36.3894 206.842 36.9106 206.378 37.3749L207.792 38.7891C208.624 37.9574 209.057 36.9306 209.057 35.76H207.057ZM206.378 37.3749C205.953 37.7997 205.469 38 204.871 38V40C206.001 40 206.993 39.5883 207.792 38.7891L206.378 37.3749ZM204.871 38H201.685V40H204.871V38ZM202.685 39V17.022H200.685V39H202.685ZM201.687 18.022L226.851 17.968L226.847 15.968L201.683 16.022L201.687 18.022ZM226.849 17.968C228.444 17.968 229.833 17.396 230.958 16.2711L229.544 14.8569C228.797 15.604 227.918 15.968 226.849 15.968V17.968ZM230.958 16.2711C232.077 15.1521 232.655 13.7835 232.655 12.216H230.655C230.655 13.2405 230.297 14.1039 229.544 14.8569L230.958 16.2711ZM232.655 12.216C232.655 11.1763 232.393 10.2056 231.865 9.3255L230.15 10.3545C230.486 10.9144 230.655 11.5277 230.655 12.216H232.655ZM231.875 9.34386C231.355 8.43283 230.632 7.71034 229.721 7.18976L228.729 8.92624C229.33 9.26965 229.795 9.73517 230.139 10.3361L231.875 9.34386ZM229.74 7.20051C228.859 6.67246 227.889 6.41 226.849 6.41V8.41C227.537 8.41 228.151 8.57954 228.711 8.91549L229.74 7.20051ZM226.849 6.41H204.925V8.41H226.849V6.41ZM204.925 6.41C204.477 6.41 204.092 6.30667 203.747 6.10975L202.755 7.84624C203.418 8.22532 204.149 8.41 204.925 8.41V6.41ZM203.775 6.12634C203.458 5.93112 203.195 5.66087 202.985 5.29386L201.249 6.28614C201.615 6.92713 202.108 7.44887 202.727 7.82966L203.775 6.12634ZM202.985 5.29386C202.783 4.93972 202.685 4.57055 202.685 4.17H200.685C200.685 4.92144 200.875 5.63228 201.249 6.28614L202.985 5.29386ZM202.685 4.17V1.2H200.685V4.17H202.685ZM201.685 2.2H226.525V0.199997H201.685V2.2ZM226.525 2.2C226.525 2.2 226.525 2.2 226.526 2.2C226.526 2.2 226.526 2.2 226.526 2.2C226.526 2.2 226.526 2.2 226.526 2.2C226.526 2.2 226.527 2.2 226.527 2.2C226.527 2.2 226.527 2.2 226.527 2.2C226.527 2.2 226.527 2.2 226.528 2.2C226.528 2.2 226.528 2.2 226.528 2.2C226.528 2.2 226.528 2.2 226.528 2.2C226.529 2.2 226.529 2.2 226.529 2.2C226.529 2.2 226.529 2.2 226.529 2.2C226.529 2.2 226.53 2.2 226.53 2.2C226.53 2.2 226.53 2.2 226.53 2.2C226.53 2.2 226.53 2.2 226.531 2.2C226.531 2.2 226.531 2.2 226.531 2.2C226.531 2.2 226.531 2.2 226.532 2.2C226.532 2.2 226.532 2.2 226.532 2.2C226.532 2.2 226.532 2.2 226.532 2.2C226.533 2.2 226.533 2.2 226.533 2.2C226.533 2.2 226.533 2.2 226.533 2.2C226.533 2.2 226.534 2.2 226.534 2.2C226.534 2.2 226.534 2.2 226.534 2.2C226.534 2.2 226.534 2.2 226.535 2.2C226.535 2.2 226.535 2.2 226.535 2.2C226.535 2.2 226.535 2.2 226.535 2.2C226.536 2.2 226.536 2.2 226.536 2.2C226.536 2.2 226.536 2.2 226.536 2.2C226.536 2.2 226.537 2.2 226.537 2.2C226.537 2.2 226.537 2.2 226.537 2.2C226.537 2.2 226.538 2.2 226.538 2.2C226.538 2.2 226.538 2.2 226.538 2.2C226.538 2.2 226.538 2.2 226.539 2.2C226.539 2.2 226.539 2.2 226.539 2.2C226.539 2.2 226.539 2.2 226.539 2.2C226.54 2.2 226.54 2.2 226.54 2.2C226.54 2.2 226.54 2.2 226.54 2.2C226.541 2.2 226.541 2.2 226.541 2.2C226.541 2.2 226.541 2.2 226.541 2.2C226.541 2.2 226.542 2.2 226.542 2.2C226.542 2.2 226.542 2.2 226.542 2.2C226.542 2.2 226.542 2.2 226.543 2.2C226.543 2.2 226.543 2.2 226.543 2.2C226.543 2.2 226.543 2.2 226.544 2.2C226.544 2.2 226.544 2.2 226.544 2.2C226.544 2.2 226.544 2.2 226.544 2.2C226.545 2.2 226.545 2.2 226.545 2.2C226.545 2.2 226.545 2.2 226.545 2.2C226.546 2.2 226.546 2.2 226.546 2.2C226.546 2.2 226.546 2.2 226.546 2.2C226.546 2.2 226.547 2.2 226.547 2.2C226.547 2.2 226.547 2.2 226.547 2.2C226.547 2.2 226.548 2.2 226.548 2.2C226.548 2.2 226.548 2.2 226.548 2.2C226.548 2.2 226.548 2.2 226.549 2.2C226.549 2.2 226.549 2.2 226.549 2.2C226.549 2.2 226.549 2.2 226.55 2.2C226.55 2.2 226.55 2.2 226.55 2.2C226.55 2.2 226.55 2.2 226.55 2.2C226.551 2.2 226.551 2.2 226.551 2.2C226.551 2.2 226.551 2.2 226.551 2.2C226.552 2.2 226.552 2.2 226.552 2.2C226.552 2.2 226.552 2.2 226.552 2.2C226.553 2.2 226.553 2.2 226.553 2.2C226.553 2.2 226.553 2.2 226.553 2.2C226.553 2.2 226.554 2.2 226.554 2.2C226.554 2.2 226.554 2.2 226.554 2.2C226.554 2.2 226.555 2.2 226.555 2.2C226.555 2.2 226.555 2.2 226.555 2.2C226.555 2.2 226.556 2.2 226.556 2.2C226.556 2.2 226.556 2.2 226.556 2.2C226.556 2.2 226.556 2.2 226.557 2.2C226.557 2.2 226.557 2.2 226.557 2.2C226.557 2.2 226.557 2.2 226.558 2.2C226.558 2.2 226.558 2.2 226.558 2.2C226.558 2.2 226.558 2.2 226.559 2.2C226.559 2.2 226.559 2.2 226.559 2.2C226.559 2.2 226.559 2.2 226.56 2.2C226.56 2.2 226.56 2.2 226.56 2.2C226.56 2.2 226.56 2.2 226.56 2.2C226.561 2.2 226.561 2.2 226.561 2.2C226.561 2.2 226.561 2.2 226.561 2.2C226.562 2.2 226.562 2.2 226.562 2.2C226.562 2.2 226.562 2.2 226.562 2.2C226.563 2.2 226.563 2.2 226.563 2.2C226.563 2.2 226.563 2.2 226.563 2.2C226.564 2.2 226.564 2.2 226.564 2.2C226.564 2.2 226.564 2.2 226.564 2.2C226.565 2.2 226.565 2.2 226.565 2.2C226.565 2.2 226.565 2.2 226.565 2.2C226.566 2.2 226.566 2.2 226.566 2.2C226.566 2.2 226.566 2.2 226.566 2.2C226.567 2.2 226.567 2.2 226.567 2.2C226.567 2.2 226.567 2.2 226.567 2.2C226.568 2.2 226.568 2.2 226.568 2.2C226.568 2.2 226.568 2.2 226.568 2.2C226.569 2.2 226.569 2.2 226.569 2.2C226.569 2.2 226.569 2.2 226.569 2.2C226.57 2.2 226.57 2.2 226.57 2.2C226.57 2.2 226.57 2.2 226.57 2.2C226.571 2.2 226.571 2.2 226.571 2.2C226.571 2.2 226.571 2.2 226.571 2.2C226.572 2.2 226.572 2.2 226.572 2.2C226.572 2.2 226.572 2.2 226.572 2.2C226.573 2.2 226.573 2.2 226.573 2.2C226.573 2.2 226.573 2.2 226.573 2.2C226.574 2.2 226.574 2.2 226.574 2.2C226.574 2.2 226.574 2.2 226.574 2.2C226.575 2.2 226.575 2.2 226.575 2.2C226.575 2.2 226.575 2.2 226.575 2.2C226.576 2.2 226.576 2.2 226.576 2.2C226.576 2.2 226.576 2.2 226.576 2.2C226.577 2.2 226.577 2.2 226.577 2.2C226.577 2.2 226.577 2.2 226.577 2.2C226.578 2.2 226.578 2.2 226.578 2.2C226.578 2.2 226.578 2.2 226.579 2.2C226.579 2.2 226.579 2.2 226.579 2.2C226.579 2.2 226.579 2.2 226.58 2.2C226.58 2.2 226.58 2.2 226.58 2.2C226.58 2.2 226.58 2.2 226.581 2.2C226.581 2.2 226.581 2.2 226.581 2.2C226.581 2.2 226.581 2.2 226.582 2.2C226.582 2.2 226.582 2.2 226.582 2.2C226.582 2.2 226.583 2.2 226.583 2.2C226.583 2.2 226.583 2.2 226.583 2.2C226.583 2.2 226.584 2.2 226.584 2.2C226.584 2.2 226.584 2.2 226.584 2.2C226.584 2.2 226.585 2.2 226.585 2.2C226.585 2.2 226.585 2.2 226.585 2.2C226.585 2.2 226.586 2.2 226.586 2.2C226.586 2.2 226.586 2.2 226.586 2.2C226.587 2.2 226.587 2.2 226.587 2.2C226.587 2.2 226.587 2.2 226.587 2.2C226.588 2.2 226.588 2.2 226.588 2.2C226.588 2.2 226.588 2.2 226.588 2.2C226.589 2.2 226.589 2.2 226.589 2.2C226.589 2.2 226.589 2.2 226.59 2.2C226.59 2.2 226.59 2.2 226.59 2.2C226.59 2.2 226.59 2.2 226.591 2.2C226.591 2.2 226.591 2.2 226.591 2.2C226.591 2.2 226.592 2.2 226.592 2.2C226.592 2.2 226.592 2.2 226.592 2.2C226.592 2.2 226.593 2.2 226.593 2.2C226.593 2.2 226.593 2.2 226.593 2.2C226.593 2.2 226.594 2.2 226.594 2.2C226.594 2.2 226.594 2.2 226.594 2.2C226.595 2.2 226.595 2.2 226.595 2.2C226.595 2.2 226.595 2.2 226.595 2.2C226.596 2.2 226.596 2.2 226.596 2.2C226.596 2.2 226.596 2.2 226.597 2.2C226.597 2.2 226.597 2.2 226.597 2.2C226.597 2.2 226.597 2.2 226.598 2.2C226.598 2.2 226.598 2.2 226.598 2.2C226.598 2.2 226.599 2.2 226.599 2.2C226.599 2.2 226.599 2.2 226.599 2.2C226.599 2.2 226.6 2.2 226.6 2.2C226.6 2.2 226.6 2.2 226.6 2.2C226.601 2.2 226.601 2.2 226.601 2.2C226.601 2.2 226.601 2.2 226.601 2.2C226.602 2.2 226.602 2.2 226.602 2.2C226.602 2.2 226.602 2.2 226.603 2.2C226.603 2.2 226.603 2.2 226.603 2.2C226.603 2.2 226.603 2.2 226.604 2.2C226.604 2.2 226.604 2.2 226.604 2.2C226.604 2.2 226.605 2.2 226.605 2.2C226.605 2.2 226.605 2.2 226.605 2.2C226.606 2.2 226.606 2.2 226.606 2.2C226.606 2.2 226.606 2.2 226.606 2.2C226.607 2.2 226.607 2.2 226.607 2.2C226.607 2.2 226.607 2.2 226.608 2.2C226.608 2.2 226.608 2.2 226.608 2.2C226.608 2.2 226.609 2.2 226.609 2.2C226.609 2.2 226.609 2.2 226.609 2.2C226.609 2.2 226.61 2.2 226.61 2.2C226.61 2.2 226.61 2.2 226.61 2.2C226.611 2.2 226.611 2.2 226.611 2.2C226.611 2.2 226.611 2.2 226.612 2.2C226.612 2.2 226.612 2.2 226.612 2.2C226.612 2.2 226.612 2.2 226.613 2.2C226.613 2.2 226.613 2.2 226.613 2.2C226.613 2.2 226.614 2.2 226.614 2.2C226.614 2.2 226.614 2.2 226.614 2.2C226.615 2.2 226.615 2.2 226.615 2.2C226.615 2.2 226.615 2.2 226.616 2.2C226.616 2.2 226.616 2.2 226.616 2.2C226.616 2.2 226.616 2.2 226.617 2.2C226.617 2.2 226.617 2.2 226.617 2.2C226.617 2.2 226.618 2.2 226.618 2.2C226.618 2.2 226.618 2.2 226.618 2.2C226.619 2.2 226.619 2.2 226.619 2.2C226.619 2.2 226.619 2.2 226.62 2.2C226.62 2.2 226.62 2.2 226.62 2.2C226.62 2.2 226.62 2.2 226.621 2.2C226.621 2.2 226.621 2.2 226.621 2.2C226.621 2.2 226.622 2.2 226.622 2.2C226.622 2.2 226.622 2.2 226.622 2.2C226.623 2.2 226.623 2.2 226.623 2.2C226.623 2.2 226.623 2.2 226.624 2.2C226.624 2.2 226.624 2.2 226.624 2.2C226.624 2.2 226.625 2.2 226.625 2.2C226.625 2.2 226.625 2.2 226.625 2.2C226.626 2.2 226.626 2.2 226.626 2.2C226.626 2.2 226.626 2.2 226.627 2.2C226.627 2.2 226.627 2.2 226.627 2.2C226.627 2.2 226.628 2.2 226.628 2.2C226.628 2.2 226.628 2.2 226.628 2.2C226.628 2.2 226.629 2.2 226.629 2.2C226.629 2.2 226.629 2.2 226.629 2.2C226.63 2.2 226.63 2.2 226.63 2.2C226.63 2.2 226.63 2.2 226.631 2.2C226.631 2.2 226.631 2.2 226.631 2.2C226.631 2.2 226.632 2.2 226.632 2.2C226.632 2.2 226.632 2.2 226.632 2.2C226.633 2.2 226.633 2.2 226.633 2.2C226.633 2.2 226.633 2.2 226.634 2.2C226.634 2.2 226.634 2.2 226.634 2.2C226.634 2.2 226.635 2.2 226.635 2.2C226.635 2.2 226.635 2.2 226.635 2.2C226.636 2.2 226.636 2.2 226.636 2.2C226.636 2.2 226.636 2.2 226.637 2.2C226.637 2.2 226.637 2.2 226.637 2.2C226.637 2.2 226.638 2.2 226.638 2.2C226.638 2.2 226.638 2.2 226.638 2.2C226.639 2.2 226.639 2.2 226.639 2.2C226.639 2.2 226.639 2.2 226.64 2.2C226.64 2.2 226.64 2.2 226.64 2.2C226.64 2.2 226.641 2.2 226.641 2.2C226.641 2.2 226.641 2.2 226.641 2.2C226.642 2.2 226.642 2.2 226.642 2.2C226.642 2.2 226.642 2.2 226.643 2.2C226.643 2.2 226.643 2.2 226.643 2.2C226.643 2.2 226.644 2.2 226.644 2.2C226.644 2.2 226.644 2.2 226.645 2.2C226.645 2.2 226.645 2.2 226.645 2.2C226.645 2.2 226.646 2.2 226.646 2.2C226.646 2.2 226.646 2.2 226.646 2.2C226.647 2.2 226.647 2.2 226.647 2.2C226.647 2.2 226.647 2.2 226.648 2.2C226.648 2.2 226.648 2.2 226.648 2.2C226.648 2.2 226.649 2.2 226.649 2.2C226.649 2.2 226.649 2.2 226.649 2.2C226.65 2.2 226.65 2.2 226.65 2.2C226.65 2.2 226.65 2.2 226.651 2.2C226.651 2.2 226.651 2.2 226.651 2.2C226.652 2.2 226.652 2.2 226.652 2.2C226.652 2.2 226.652 2.2 226.653 2.2C226.653 2.2 226.653 2.2 226.653 2.2C226.653 2.2 226.654 2.2 226.654 2.2C226.654 2.2 226.654 2.2 226.654 2.2C226.655 2.2 226.655 2.2 226.655 2.2C226.655 2.2 226.655 2.2 226.656 2.2C226.656 2.2 226.656 2.2 226.656 2.2C226.657 2.2 226.657 2.2 226.657 2.2C226.657 2.2 226.657 2.2 226.658 2.2C226.658 2.2 226.658 2.2 226.658 2.2C226.658 2.2 226.659 2.2 226.659 2.2C226.659 2.2 226.659 2.2 226.659 2.2C226.66 2.2 226.66 2.2 226.66 2.2C226.66 2.2 226.661 2.2 226.661 2.2C226.661 2.2 226.661 2.2 226.661 2.2C226.662 2.2 226.662 2.2 226.662 2.2C226.662 2.2 226.662 2.2 226.663 2.2C226.663 2.2 226.663 2.2 226.663 2.2C226.663 2.2 226.664 2.2 226.664 2.2C226.664 2.2 226.664 2.2 226.665 2.2C226.665 2.2 226.665 2.2 226.665 2.2C226.665 2.2 226.666 2.2 226.666 2.2C226.666 2.2 226.666 2.2 226.666 2.2C226.667 2.2 226.667 2.2 226.667 2.2C226.667 2.2 226.668 2.2 226.668 2.2C226.668 2.2 226.668 2.2 226.668 2.2C226.669 2.2 226.669 2.2 226.669 2.2C226.669 2.2 226.669 2.2 226.67 2.2C226.67 2.2 226.67 2.2 226.67 2.2C226.671 2.2 226.671 2.2 226.671 2.2C226.671 2.2 226.671 2.2 226.672 2.2C226.672 2.2 226.672 2.2 226.672 2.2C226.672 2.2 226.673 2.2 226.673 2.2C226.673 2.2 226.673 2.2 226.674 2.2C226.674 2.2 226.674 2.2 226.674 2.2C226.674 2.2 226.675 2.2 226.675 2.2C226.675 2.2 226.675 2.2 226.676 2.2C226.676 2.2 226.676 2.2 226.676 2.2C226.676 2.2 226.677 2.2 226.677 2.2C226.677 2.2 226.677 2.2 226.677 2.2C226.678 2.2 226.678 2.2 226.678 2.2C226.678 2.2 226.679 2.2 226.679 2.2C226.679 2.2 226.679 2.2 226.679 2.2C226.68 2.2 226.68 2.2 226.68 2.2C226.68 2.2 226.681 2.2 226.681 2.2C226.681 2.2 226.681 2.2 226.681 2.2C226.682 2.2 226.682 2.2 226.682 2.2C226.682 2.2 226.683 2.2 226.683 2.2C226.683 2.2 226.683 2.2 226.683 2.2C226.684 2.2 226.684 2.2 226.684 2.2C226.684 2.2 226.684 2.2 226.685 2.2C226.685 2.2 226.685 2.2 226.685 2.2C226.686 2.2 226.686 2.2 226.686 2.2C226.686 2.2 226.686 2.2 226.687 2.2C226.687 2.2 226.687 2.2 226.687 2.2C226.688 2.2 226.688 2.2 226.688 2.2C226.688 2.2 226.688 2.2 226.689 2.2C226.689 2.2 226.689 2.2 226.689 2.2C226.69 2.2 226.69 2.2 226.69 2.2C226.69 2.2 226.691 2.2 226.691 2.2C226.691 2.2 226.691 2.2 226.691 2.2C226.692 2.2 226.692 2.2 226.692 2.2C226.692 2.2 226.693 2.2 226.693 2.2C226.693 2.2 226.693 2.2 226.693 2.2C226.694 2.2 226.694 2.2 226.694 2.2C226.694 2.2 226.695 2.2 226.695 2.2C226.695 2.2 226.695 2.2 226.695 2.2C226.696 2.2 226.696 2.2 226.696 2.2C226.696 2.2 226.697 2.2 226.697 2.2C226.697 2.2 226.697 2.2 226.697 2.2C226.698 2.2 226.698 2.2 226.698 2.2C226.698 2.2 226.699 2.2 226.699 2.2C226.699 2.2 226.699 2.2 226.7 2.2C226.7 2.2 226.7 2.2 226.7 2.2C226.7 2.2 226.701 2.2 226.701 2.2C226.701 2.2 226.701 2.2 226.702 2.2C226.702 2.2 226.702 2.2 226.702 2.2C226.702 2.2 226.703 2.2 226.703 2.2C226.703 2.2 226.703 2.2 226.704 2.2C226.704 2.2 226.704 2.2 226.704 2.2C226.705 2.2 226.705 2.2 226.705 2.2C226.705 2.2 226.705 2.2 226.706 2.2C226.706 2.2 226.706 2.2 226.706 2.2C226.707 2.2 226.707 2.2 226.707 2.2C226.707 2.2 226.708 2.2 226.708 2.2C226.708 2.2 226.708 2.2 226.708 2.2C226.709 2.2 226.709 2.2 226.709 2.2C226.709 2.2 226.71 2.2 226.71 2.2C226.71 2.2 226.71 2.2 226.711 2.2C226.711 2.2 226.711 2.2 226.711 2.2C226.711 2.2 226.712 2.2 226.712 2.2C226.712 2.2 226.712 2.2 226.713 2.2C226.713 2.2 226.713 2.2 226.713 2.2C226.714 2.2 226.714 2.2 226.714 2.2C226.714 2.2 226.715 2.2 226.715 2.2C226.715 2.2 226.715 2.2 226.715 2.2C226.716 2.2 226.716 2.2 226.716 2.2C226.716 2.2 226.717 2.2 226.717 2.2C226.717 2.2 226.717 2.2 226.718 2.2C226.718 2.2 226.718 2.2 226.718 2.2C226.718 2.2 226.719 2.2 226.719 2.2C226.719 2.2 226.719 2.2 226.72 2.2C226.72 2.2 226.72 2.2 226.72 2.2C226.721 2.2 226.721 2.2 226.721 2.2C226.721 2.2 226.722 2.2 226.722 2.2C226.722 2.2 226.722 2.2 226.722 2.2C226.723 2.2 226.723 2.2 226.723 2.2C226.723 2.2 226.724 2.2 226.724 2.2C226.724 2.2 226.724 2.2 226.725 2.2C226.725 2.2 226.725 2.2 226.725 2.2C226.726 2.2 226.726 2.2 226.726 2.2C226.726 2.2 226.727 2.2 226.727 2.2C226.727 2.2 226.727 2.2 226.727 2.2C226.728 2.2 226.728 2.2 226.728 2.2C226.728 2.2 226.729 2.2 226.729 2.2C226.729 2.2 226.729 2.2 226.73 2.2C226.73 2.2 226.73 2.2 226.73 2.2C226.731 2.2 226.731 2.2 226.731 2.2C226.731 2.2 226.732 2.2 226.732 2.2C226.732 2.2 226.732 2.2 226.733 2.2C226.733 2.2 226.733 2.2 226.733 2.2C226.733 2.2 226.734 2.2 226.734 2.2C226.734 2.2 226.734 2.2 226.735 2.2C226.735 2.2 226.735 2.2 226.735 2.2C226.736 2.2 226.736 2.2 226.736 2.2C226.736 2.2 226.737 2.2 226.737 2.2C226.737 2.2 226.737 2.2 226.738 2.2C226.738 2.2 226.738 2.2 226.738 2.2C226.739 2.2 226.739 2.2 226.739 2.2C226.739 2.2 226.74 2.2 226.74 2.2C226.74 2.2 226.74 2.2 226.74 2.2C226.741 2.2 226.741 2.2 226.741 2.2C226.741 2.2 226.742 2.2 226.742 2.2C226.742 2.2 226.742 2.2 226.743 2.2C226.743 2.2 226.743 2.2 226.743 2.2C226.744 2.2 226.744 2.2 226.744 2.2C226.744 2.2 226.745 2.2 226.745 2.2C226.745 2.2 226.745 2.2 226.746 2.2C226.746 2.2 226.746 2.2 226.746 2.2C226.747 2.2 226.747 2.2 226.747 2.2C226.747 2.2 226.748 2.2 226.748 2.2C226.748 2.2 226.748 2.2 226.749 2.2C226.749 2.2 226.749 2.2 226.749 2.2C226.75 2.2 226.75 2.2 226.75 2.2C226.75 2.2 226.751 2.2 226.751 2.2C226.751 2.2 226.751 2.2 226.752 2.2C226.752 2.2 226.752 2.2 226.752 2.2C226.753 2.2 226.753 2.2 226.753 2.2C226.753 2.2 226.754 2.2 226.754 2.2C226.754 2.2 226.754 2.2 226.755 2.2C226.755 2.2 226.755 2.2 226.755 2.2C226.756 2.2 226.756 2.2 226.756 2.2C226.756 2.2 226.756 2.2 226.757 2.2C226.757 2.2 226.757 2.2 226.757 2.2C226.758 2.2 226.758 2.2 226.758 2.2C226.758 2.2 226.759 2.2 226.759 2.2C226.759 2.2 226.759 2.2 226.76 2.2C226.76 2.2 226.76 2.2 226.76 2.2C226.761 2.2 226.761 2.2 226.761 2.2C226.762 2.2 226.762 2.2 226.762 2.2C226.762 2.2 226.763 2.2 226.763 2.2C226.763 2.2 226.763 2.2 226.764 2.2C226.764 2.2 226.764 2.2 226.764 2.2C226.765 2.2 226.765 2.2 226.765 2.2C226.765 2.2 226.766 2.2 226.766 2.2C226.766 2.2 226.766 2.2 226.767 2.2C226.767 2.2 226.767 2.2 226.767 2.2C226.768 2.2 226.768 2.2 226.768 2.2C226.768 2.2 226.769 2.2 226.769 2.2C226.769 2.2 226.769 2.2 226.77 2.2C226.77 2.2 226.77 2.2 226.77 2.2C226.771 2.2 226.771 2.2 226.771 2.2C226.771 2.2 226.772 2.2 226.772 2.2C226.772 2.2 226.772 2.2 226.773 2.2C226.773 2.2 226.773 2.2 226.773 2.2C226.774 2.2 226.774 2.2 226.774 2.2C226.774 2.2 226.775 2.2 226.775 2.2C226.775 2.2 226.775 2.2 226.776 2.2C226.776 2.2 226.776 2.2 226.776 2.2C226.777 2.2 226.777 2.2 226.777 2.2C226.778 2.2 226.778 2.2 226.778 2.2C226.778 2.2 226.779 2.2 226.779 2.2C226.779 2.2 226.779 2.2 226.78 2.2C226.78 2.2 226.78 2.2 226.78 2.2C226.781 2.2 226.781 2.2 226.781 2.2C226.781 2.2 226.782 2.2 226.782 2.2C226.782 2.2 226.782 2.2 226.783 2.2C226.783 2.2 226.783 2.2 226.783 2.2C226.784 2.2 226.784 2.2 226.784 2.2C226.784 2.2 226.785 2.2 226.785 2.2C226.785 2.2 226.786 2.2 226.786 2.2C226.786 2.2 226.786 2.2 226.787 2.2C226.787 2.2 226.787 2.2 226.787 2.2C226.788 2.2 226.788 2.2 226.788 2.2C226.788 2.2 226.789 2.2 226.789 2.2C226.789 2.2 226.789 2.2 226.79 2.2C226.79 2.2 226.79 2.2 226.79 2.2C226.791 2.2 226.791 2.2 226.791 2.2C226.792 2.2 226.792 2.2 226.792 2.2C226.792 2.2 226.793 2.2 226.793 2.2C226.793 2.2 226.793 2.2 226.794 2.2C226.794 2.2 226.794 2.2 226.794 2.2C226.795 2.2 226.795 2.2 226.795 2.2C226.795 2.2 226.796 2.2 226.796 2.2C226.796 2.2 226.797 2.2 226.797 2.2C226.797 2.2 226.797 2.2 226.798 2.2C226.798 2.2 226.798 2.2 226.798 2.2C226.799 2.2 226.799 2.2 226.799 2.2C226.799 2.2 226.8 2.2 226.8 2.2C226.8 2.2 226.8 2.2 226.801 2.2C226.801 2.2 226.801 2.2 226.802 2.2C226.802 2.2 226.802 2.2 226.802 2.2C226.803 2.2 226.803 2.2 226.803 2.2C226.803 2.2 226.804 2.2 226.804 2.2C226.804 2.2 226.804 2.2 226.805 2.2C226.805 2.2 226.805 2.2 226.806 2.2C226.806 2.2 226.806 2.2 226.806 2.2C226.807 2.2 226.807 2.2 226.807 2.2C226.807 2.2 226.808 2.2 226.808 2.2C226.808 2.2 226.808 2.2 226.809 2.2C226.809 2.2 226.809 2.2 226.81 2.2C226.81 2.2 226.81 2.2 226.81 2.2C226.811 2.2 226.811 2.2 226.811 2.2C226.811 2.2 226.812 2.2 226.812 2.2C226.812 2.2 226.812 2.2 226.813 2.2C226.813 2.2 226.813 2.2 226.814 2.2C226.814 2.2 226.814 2.2 226.814 2.2C226.815 2.2 226.815 2.2 226.815 2.2C226.815 2.2 226.816 2.2 226.816 2.2C226.816 2.2 226.817 2.2 226.817 2.2C226.817 2.2 226.817 2.2 226.818 2.2C226.818 2.2 226.818 2.2 226.818 2.2C226.819 2.2 226.819 2.2 226.819 2.2C226.82 2.2 226.82 2.2 226.82 2.2C226.82 2.2 226.821 2.2 226.821 2.2C226.821 2.2 226.821 2.2 226.822 2.2C226.822 2.2 226.822 2.2 226.823 2.2C226.823 2.2 226.823 2.2 226.823 2.2C226.824 2.2 226.824 2.2 226.824 2.2C226.824 2.2 226.825 2.2 226.825 2.2C226.825 2.2 226.826 2.2 226.826 2.2C226.826 2.2 226.826 2.2 226.827 2.2C226.827 2.2 226.827 2.2 226.827 2.2C226.828 2.2 226.828 2.2 226.828 2.2C226.829 2.2 226.829 2.2 226.829 2.2C226.829 2.2 226.83 2.2 226.83 2.2C226.83 2.2 226.83 2.2 226.831 2.2C226.831 2.2 226.831 2.2 226.832 2.2C226.832 2.2 226.832 2.2 226.832 2.2C226.833 2.2 226.833 2.2 226.833 2.2C226.833 2.2 226.834 2.2 226.834 2.2C226.834 2.2 226.835 2.2 226.835 2.2C226.835 2.2 226.835 2.2 226.836 2.2C226.836 2.2 226.836 2.2 226.837 2.2C226.837 2.2 226.837 2.2 226.837 2.2C226.838 2.2 226.838 2.2 226.838 2.2C226.838 2.2 226.839 2.2 226.839 2.2C226.839 2.2 226.84 2.2 226.84 2.2C226.84 2.2 226.84 2.2 226.841 2.2C226.841 2.2 226.841 2.2 226.842 2.2C226.842 2.2 226.842 2.2 226.842 2.2C226.843 2.2 226.843 2.2 226.843 2.2C226.843 2.2 226.844 2.2 226.844 2.2C226.844 2.2 226.845 2.2 226.845 2.2C226.845 2.2 226.845 2.2 226.846 2.2C226.846 2.2 226.846 2.2 226.847 2.2C226.847 2.2 226.847 2.2 226.847 2.2C226.848 2.2 226.848 2.2 226.848 2.2C226.849 2.2 226.849 2.2 226.849 2.2V0.199997C226.849 0.199997 226.849 0.199997 226.848 0.199997C226.848 0.199997 226.848 0.199997 226.847 0.199997C226.847 0.199997 226.847 0.199997 226.847 0.199997C226.846 0.199997 226.846 0.199997 226.846 0.199997C226.845 0.199997 226.845 0.199997 226.845 0.199997C226.845 0.199997 226.844 0.199997 226.844 0.199997C226.844 0.199997 226.843 0.199997 226.843 0.199997C226.843 0.199997 226.843 0.199997 226.842 0.199997C226.842 0.199997 226.842 0.199997 226.842 0.199997C226.841 0.199997 226.841 0.199997 226.841 0.199997C226.84 0.199997 226.84 0.199997 226.84 0.199997C226.84 0.199997 226.839 0.199997 226.839 0.199997C226.839 0.199997 226.838 0.199997 226.838 0.199997C226.838 0.199997 226.838 0.199997 226.837 0.199997C226.837 0.199997 226.837 0.199997 226.837 0.199997C226.836 0.199997 226.836 0.199997 226.836 0.199997C226.835 0.199997 226.835 0.199997 226.835 0.199997C226.835 0.199997 226.834 0.199997 226.834 0.199997C226.834 0.199997 226.833 0.199997 226.833 0.199997C226.833 0.199997 226.833 0.199997 226.832 0.199997C226.832 0.199997 226.832 0.199997 226.832 0.199997C226.831 0.199997 226.831 0.199997 226.831 0.199997C226.83 0.199997 226.83 0.199997 226.83 0.199997C226.83 0.199997 226.829 0.199997 226.829 0.199997C226.829 0.199997 226.829 0.199997 226.828 0.199997C226.828 0.199997 226.828 0.199997 226.827 0.199997C226.827 0.199997 226.827 0.199997 226.827 0.199997C226.826 0.199997 226.826 0.199997 226.826 0.199997C226.826 0.199997 226.825 0.199997 226.825 0.199997C226.825 0.199997 226.824 0.199997 226.824 0.199997C226.824 0.199997 226.824 0.199997 226.823 0.199997C226.823 0.199997 226.823 0.199997 226.823 0.199997C226.822 0.199997 226.822 0.199997 226.822 0.199997C226.821 0.199997 226.821 0.199997 226.821 0.199997C226.821 0.199997 226.82 0.199997 226.82 0.199997C226.82 0.199997 226.82 0.199997 226.819 0.199997C226.819 0.199997 226.819 0.199997 226.818 0.199997C226.818 0.199997 226.818 0.199997 226.818 0.199997C226.817 0.199997 226.817 0.199997 226.817 0.199997C226.817 0.199997 226.816 0.199997 226.816 0.199997C226.816 0.199997 226.815 0.199997 226.815 0.199997C226.815 0.199997 226.815 0.199997 226.814 0.199997C226.814 0.199997 226.814 0.199997 226.814 0.199997C226.813 0.199997 226.813 0.199997 226.813 0.199997C226.812 0.199997 226.812 0.199997 226.812 0.199997C226.812 0.199997 226.811 0.199997 226.811 0.199997C226.811 0.199997 226.811 0.199997 226.81 0.199997C226.81 0.199997 226.81 0.199997 226.81 0.199997C226.809 0.199997 226.809 0.199997 226.809 0.199997C226.808 0.199997 226.808 0.199997 226.808 0.199997C226.808 0.199997 226.807 0.199997 226.807 0.199997C226.807 0.199997 226.807 0.199997 226.806 0.199997C226.806 0.199997 226.806 0.199997 226.806 0.199997C226.805 0.199997 226.805 0.199997 226.805 0.199997C226.804 0.199997 226.804 0.199997 226.804 0.199997C226.804 0.199997 226.803 0.199997 226.803 0.199997C226.803 0.199997 226.803 0.199997 226.802 0.199997C226.802 0.199997 226.802 0.199997 226.802 0.199997C226.801 0.199997 226.801 0.199997 226.801 0.199997C226.8 0.199997 226.8 0.199997 226.8 0.199997C226.8 0.199997 226.799 0.199997 226.799 0.199997C226.799 0.199997 226.799 0.199997 226.798 0.199997C226.798 0.199997 226.798 0.199997 226.798 0.199997C226.797 0.199997 226.797 0.199997 226.797 0.199997C226.797 0.199997 226.796 0.199997 226.796 0.199997C226.796 0.199997 226.795 0.199997 226.795 0.199997C226.795 0.199997 226.795 0.199997 226.794 0.199997C226.794 0.199997 226.794 0.199997 226.794 0.199997C226.793 0.199997 226.793 0.199997 226.793 0.199997C226.793 0.199997 226.792 0.199997 226.792 0.199997C226.792 0.199997 226.792 0.199997 226.791 0.199997C226.791 0.199997 226.791 0.199997 226.79 0.199997C226.79 0.199997 226.79 0.199997 226.79 0.199997C226.789 0.199997 226.789 0.199997 226.789 0.199997C226.789 0.199997 226.788 0.199997 226.788 0.199997C226.788 0.199997 226.788 0.199997 226.787 0.199997C226.787 0.199997 226.787 0.199997 226.787 0.199997C226.786 0.199997 226.786 0.199997 226.786 0.199997C226.786 0.199997 226.785 0.199997 226.785 0.199997C226.785 0.199997 226.784 0.199997 226.784 0.199997C226.784 0.199997 226.784 0.199997 226.783 0.199997C226.783 0.199997 226.783 0.199997 226.783 0.199997C226.782 0.199997 226.782 0.199997 226.782 0.199997C226.782 0.199997 226.781 0.199997 226.781 0.199997C226.781 0.199997 226.781 0.199997 226.78 0.199997C226.78 0.199997 226.78 0.199997 226.78 0.199997C226.779 0.199997 226.779 0.199997 226.779 0.199997C226.779 0.199997 226.778 0.199997 226.778 0.199997C226.778 0.199997 226.778 0.199997 226.777 0.199997C226.777 0.199997 226.777 0.199997 226.776 0.199997C226.776 0.199997 226.776 0.199997 226.776 0.199997C226.775 0.199997 226.775 0.199997 226.775 0.199997C226.775 0.199997 226.774 0.199997 226.774 0.199997C226.774 0.199997 226.774 0.199997 226.773 0.199997C226.773 0.199997 226.773 0.199997 226.773 0.199997C226.772 0.199997 226.772 0.199997 226.772 0.199997C226.772 0.199997 226.771 0.199997 226.771 0.199997C226.771 0.199997 226.771 0.199997 226.77 0.199997C226.77 0.199997 226.77 0.199997 226.77 0.199997C226.769 0.199997 226.769 0.199997 226.769 0.199997C226.769 0.199997 226.768 0.199997 226.768 0.199997C226.768 0.199997 226.768 0.199997 226.767 0.199997C226.767 0.199997 226.767 0.199997 226.767 0.199997C226.766 0.199997 226.766 0.199997 226.766 0.199997C226.766 0.199997 226.765 0.199997 226.765 0.199997C226.765 0.199997 226.765 0.199997 226.764 0.199997C226.764 0.199997 226.764 0.199997 226.764 0.199997C226.763 0.199997 226.763 0.199997 226.763 0.199997C226.763 0.199997 226.762 0.199997 226.762 0.199997C226.762 0.199997 226.762 0.199997 226.761 0.199997C226.761 0.199997 226.761 0.199997 226.76 0.199997C226.76 0.199997 226.76 0.199997 226.76 0.199997C226.759 0.199997 226.759 0.199997 226.759 0.199997C226.759 0.199997 226.758 0.199997 226.758 0.199997C226.758 0.199997 226.758 0.199997 226.757 0.199997C226.757 0.199997 226.757 0.199997 226.757 0.199997C226.756 0.199997 226.756 0.199997 226.756 0.199997C226.756 0.199997 226.756 0.199997 226.755 0.199997C226.755 0.199997 226.755 0.199997 226.755 0.199997C226.754 0.199997 226.754 0.199997 226.754 0.199997C226.754 0.199997 226.753 0.199997 226.753 0.199997C226.753 0.199997 226.753 0.199997 226.752 0.199997C226.752 0.199997 226.752 0.199997 226.752 0.199997C226.751 0.199997 226.751 0.199997 226.751 0.199997C226.751 0.199997 226.75 0.199997 226.75 0.199997C226.75 0.199997 226.75 0.199997 226.749 0.199997C226.749 0.199997 226.749 0.199997 226.749 0.199997C226.748 0.199997 226.748 0.199997 226.748 0.199997C226.748 0.199997 226.747 0.199997 226.747 0.199997C226.747 0.199997 226.747 0.199997 226.746 0.199997C226.746 0.199997 226.746 0.199997 226.746 0.199997C226.745 0.199997 226.745 0.199997 226.745 0.199997C226.745 0.199997 226.744 0.199997 226.744 0.199997C226.744 0.199997 226.744 0.199997 226.743 0.199997C226.743 0.199997 226.743 0.199997 226.743 0.199997C226.742 0.199997 226.742 0.199997 226.742 0.199997C226.742 0.199997 226.741 0.199997 226.741 0.199997C226.741 0.199997 226.741 0.199997 226.74 0.199997C226.74 0.199997 226.74 0.199997 226.74 0.199997C226.74 0.199997 226.739 0.199997 226.739 0.199997C226.739 0.199997 226.739 0.199997 226.738 0.199997C226.738 0.199997 226.738 0.199997 226.738 0.199997C226.737 0.199997 226.737 0.199997 226.737 0.199997C226.737 0.199997 226.736 0.199997 226.736 0.199997C226.736 0.199997 226.736 0.199997 226.735 0.199997C226.735 0.199997 226.735 0.199997 226.735 0.199997C226.734 0.199997 226.734 0.199997 226.734 0.199997C226.734 0.199997 226.733 0.199997 226.733 0.199997C226.733 0.199997 226.733 0.199997 226.733 0.199997C226.732 0.199997 226.732 0.199997 226.732 0.199997C226.732 0.199997 226.731 0.199997 226.731 0.199997C226.731 0.199997 226.731 0.199997 226.73 0.199997C226.73 0.199997 226.73 0.199997 226.73 0.199997C226.729 0.199997 226.729 0.199997 226.729 0.199997C226.729 0.199997 226.728 0.199997 226.728 0.199997C226.728 0.199997 226.728 0.199997 226.727 0.199997C226.727 0.199997 226.727 0.199997 226.727 0.199997C226.727 0.199997 226.726 0.199997 226.726 0.199997C226.726 0.199997 226.726 0.199997 226.725 0.199997C226.725 0.199997 226.725 0.199997 226.725 0.199997C226.724 0.199997 226.724 0.199997 226.724 0.199997C226.724 0.199997 226.723 0.199997 226.723 0.199997C226.723 0.199997 226.723 0.199997 226.722 0.199997C226.722 0.199997 226.722 0.199997 226.722 0.199997C226.722 0.199997 226.721 0.199997 226.721 0.199997C226.721 0.199997 226.721 0.199997 226.72 0.199997C226.72 0.199997 226.72 0.199997 226.72 0.199997C226.719 0.199997 226.719 0.199997 226.719 0.199997C226.719 0.199997 226.718 0.199997 226.718 0.199997C226.718 0.199997 226.718 0.199997 226.718 0.199997C226.717 0.199997 226.717 0.199997 226.717 0.199997C226.717 0.199997 226.716 0.199997 226.716 0.199997C226.716 0.199997 226.716 0.199997 226.715 0.199997C226.715 0.199997 226.715 0.199997 226.715 0.199997C226.715 0.199997 226.714 0.199997 226.714 0.199997C226.714 0.199997 226.714 0.199997 226.713 0.199997C226.713 0.199997 226.713 0.199997 226.713 0.199997C226.712 0.199997 226.712 0.199997 226.712 0.199997C226.712 0.199997 226.711 0.199997 226.711 0.199997C226.711 0.199997 226.711 0.199997 226.711 0.199997C226.71 0.199997 226.71 0.199997 226.71 0.199997C226.71 0.199997 226.709 0.199997 226.709 0.199997C226.709 0.199997 226.709 0.199997 226.708 0.199997C226.708 0.199997 226.708 0.199997 226.708 0.199997C226.708 0.199997 226.707 0.199997 226.707 0.199997C226.707 0.199997 226.707 0.199997 226.706 0.199997C226.706 0.199997 226.706 0.199997 226.706 0.199997C226.705 0.199997 226.705 0.199997 226.705 0.199997C226.705 0.199997 226.705 0.199997 226.704 0.199997C226.704 0.199997 226.704 0.199997 226.704 0.199997C226.703 0.199997 226.703 0.199997 226.703 0.199997C226.703 0.199997 226.702 0.199997 226.702 0.199997C226.702 0.199997 226.702 0.199997 226.702 0.199997C226.701 0.199997 226.701 0.199997 226.701 0.199997C226.701 0.199997 226.7 0.199997 226.7 0.199997C226.7 0.199997 226.7 0.199997 226.7 0.199997C226.699 0.199997 226.699 0.199997 226.699 0.199997C226.699 0.199997 226.698 0.199997 226.698 0.199997C226.698 0.199997 226.698 0.199997 226.697 0.199997C226.697 0.199997 226.697 0.199997 226.697 0.199997C226.697 0.199997 226.696 0.199997 226.696 0.199997C226.696 0.199997 226.696 0.199997 226.695 0.199997C226.695 0.199997 226.695 0.199997 226.695 0.199997C226.695 0.199997 226.694 0.199997 226.694 0.199997C226.694 0.199997 226.694 0.199997 226.693 0.199997C226.693 0.199997 226.693 0.199997 226.693 0.199997C226.693 0.199997 226.692 0.199997 226.692 0.199997C226.692 0.199997 226.692 0.199997 226.691 0.199997C226.691 0.199997 226.691 0.199997 226.691 0.199997C226.691 0.199997 226.69 0.199997 226.69 0.199997C226.69 0.199997 226.69 0.199997 226.689 0.199997C226.689 0.199997 226.689 0.199997 226.689 0.199997C226.688 0.199997 226.688 0.199997 226.688 0.199997C226.688 0.199997 226.688 0.199997 226.687 0.199997C226.687 0.199997 226.687 0.199997 226.687 0.199997C226.686 0.199997 226.686 0.199997 226.686 0.199997C226.686 0.199997 226.686 0.199997 226.685 0.199997C226.685 0.199997 226.685 0.199997 226.685 0.199997C226.684 0.199997 226.684 0.199997 226.684 0.199997C226.684 0.199997 226.684 0.199997 226.683 0.199997C226.683 0.199997 226.683 0.199997 226.683 0.199997C226.683 0.199997 226.682 0.199997 226.682 0.199997C226.682 0.199997 226.682 0.199997 226.681 0.199997C226.681 0.199997 226.681 0.199997 226.681 0.199997C226.681 0.199997 226.68 0.199997 226.68 0.199997C226.68 0.199997 226.68 0.199997 226.679 0.199997C226.679 0.199997 226.679 0.199997 226.679 0.199997C226.679 0.199997 226.678 0.199997 226.678 0.199997C226.678 0.199997 226.678 0.199997 226.677 0.199997C226.677 0.199997 226.677 0.199997 226.677 0.199997C226.677 0.199997 226.676 0.199997 226.676 0.199997C226.676 0.199997 226.676 0.199997 226.676 0.199997C226.675 0.199997 226.675 0.199997 226.675 0.199997C226.675 0.199997 226.674 0.199997 226.674 0.199997C226.674 0.199997 226.674 0.199997 226.674 0.199997C226.673 0.199997 226.673 0.199997 226.673 0.199997C226.673 0.199997 226.672 0.199997 226.672 0.199997C226.672 0.199997 226.672 0.199997 226.672 0.199997C226.671 0.199997 226.671 0.199997 226.671 0.199997C226.671 0.199997 226.671 0.199997 226.67 0.199997C226.67 0.199997 226.67 0.199997 226.67 0.199997C226.669 0.199997 226.669 0.199997 226.669 0.199997C226.669 0.199997 226.669 0.199997 226.668 0.199997C226.668 0.199997 226.668 0.199997 226.668 0.199997C226.668 0.199997 226.667 0.199997 226.667 0.199997C226.667 0.199997 226.667 0.199997 226.666 0.199997C226.666 0.199997 226.666 0.199997 226.666 0.199997C226.666 0.199997 226.665 0.199997 226.665 0.199997C226.665 0.199997 226.665 0.199997 226.665 0.199997C226.664 0.199997 226.664 0.199997 226.664 0.199997C226.664 0.199997 226.663 0.199997 226.663 0.199997C226.663 0.199997 226.663 0.199997 226.663 0.199997C226.662 0.199997 226.662 0.199997 226.662 0.199997C226.662 0.199997 226.662 0.199997 226.661 0.199997C226.661 0.199997 226.661 0.199997 226.661 0.199997C226.661 0.199997 226.66 0.199997 226.66 0.199997C226.66 0.199997 226.66 0.199997 226.659 0.199997C226.659 0.199997 226.659 0.199997 226.659 0.199997C226.659 0.199997 226.658 0.199997 226.658 0.199997C226.658 0.199997 226.658 0.199997 226.658 0.199997C226.657 0.199997 226.657 0.199997 226.657 0.199997C226.657 0.199997 226.657 0.199997 226.656 0.199997C226.656 0.199997 226.656 0.199997 226.656 0.199997C226.655 0.199997 226.655 0.199997 226.655 0.199997C226.655 0.199997 226.655 0.199997 226.654 0.199997C226.654 0.199997 226.654 0.199997 226.654 0.199997C226.654 0.199997 226.653 0.199997 226.653 0.199997C226.653 0.199997 226.653 0.199997 226.653 0.199997C226.652 0.199997 226.652 0.199997 226.652 0.199997C226.652 0.199997 226.652 0.199997 226.651 0.199997C226.651 0.199997 226.651 0.199997 226.651 0.199997C226.65 0.199997 226.65 0.199997 226.65 0.199997C226.65 0.199997 226.65 0.199997 226.649 0.199997C226.649 0.199997 226.649 0.199997 226.649 0.199997C226.649 0.199997 226.648 0.199997 226.648 0.199997C226.648 0.199997 226.648 0.199997 226.648 0.199997C226.647 0.199997 226.647 0.199997 226.647 0.199997C226.647 0.199997 226.647 0.199997 226.646 0.199997C226.646 0.199997 226.646 0.199997 226.646 0.199997C226.646 0.199997 226.645 0.199997 226.645 0.199997C226.645 0.199997 226.645 0.199997 226.645 0.199997C226.644 0.199997 226.644 0.199997 226.644 0.199997C226.644 0.199997 226.643 0.199997 226.643 0.199997C226.643 0.199997 226.643 0.199997 226.643 0.199997C226.642 0.199997 226.642 0.199997 226.642 0.199997C226.642 0.199997 226.642 0.199997 226.641 0.199997C226.641 0.199997 226.641 0.199997 226.641 0.199997C226.641 0.199997 226.64 0.199997 226.64 0.199997C226.64 0.199997 226.64 0.199997 226.64 0.199997C226.639 0.199997 226.639 0.199997 226.639 0.199997C226.639 0.199997 226.639 0.199997 226.638 0.199997C226.638 0.199997 226.638 0.199997 226.638 0.199997C226.638 0.199997 226.637 0.199997 226.637 0.199997C226.637 0.199997 226.637 0.199997 226.637 0.199997C226.636 0.199997 226.636 0.199997 226.636 0.199997C226.636 0.199997 226.636 0.199997 226.635 0.199997C226.635 0.199997 226.635 0.199997 226.635 0.199997C226.635 0.199997 226.634 0.199997 226.634 0.199997C226.634 0.199997 226.634 0.199997 226.634 0.199997C226.633 0.199997 226.633 0.199997 226.633 0.199997C226.633 0.199997 226.633 0.199997 226.632 0.199997C226.632 0.199997 226.632 0.199997 226.632 0.199997C226.632 0.199997 226.631 0.199997 226.631 0.199997C226.631 0.199997 226.631 0.199997 226.631 0.199997C226.63 0.199997 226.63 0.199997 226.63 0.199997C226.63 0.199997 226.63 0.199997 226.629 0.199997C226.629 0.199997 226.629 0.199997 226.629 0.199997C226.629 0.199997 226.628 0.199997 226.628 0.199997C226.628 0.199997 226.628 0.199997 226.628 0.199997C226.628 0.199997 226.627 0.199997 226.627 0.199997C226.627 0.199997 226.627 0.199997 226.627 0.199997C226.626 0.199997 226.626 0.199997 226.626 0.199997C226.626 0.199997 226.626 0.199997 226.625 0.199997C226.625 0.199997 226.625 0.199997 226.625 0.199997C226.625 0.199997 226.624 0.199997 226.624 0.199997C226.624 0.199997 226.624 0.199997 226.624 0.199997C226.623 0.199997 226.623 0.199997 226.623 0.199997C226.623 0.199997 226.623 0.199997 226.622 0.199997C226.622 0.199997 226.622 0.199997 226.622 0.199997C226.622 0.199997 226.621 0.199997 226.621 0.199997C226.621 0.199997 226.621 0.199997 226.621 0.199997C226.62 0.199997 226.62 0.199997 226.62 0.199997C226.62 0.199997 226.62 0.199997 226.62 0.199997C226.619 0.199997 226.619 0.199997 226.619 0.199997C226.619 0.199997 226.619 0.199997 226.618 0.199997C226.618 0.199997 226.618 0.199997 226.618 0.199997C226.618 0.199997 226.617 0.199997 226.617 0.199997C226.617 0.199997 226.617 0.199997 226.617 0.199997C226.616 0.199997 226.616 0.199997 226.616 0.199997C226.616 0.199997 226.616 0.199997 226.616 0.199997C226.615 0.199997 226.615 0.199997 226.615 0.199997C226.615 0.199997 226.615 0.199997 226.614 0.199997C226.614 0.199997 226.614 0.199997 226.614 0.199997C226.614 0.199997 226.613 0.199997 226.613 0.199997C226.613 0.199997 226.613 0.199997 226.613 0.199997C226.612 0.199997 226.612 0.199997 226.612 0.199997C226.612 0.199997 226.612 0.199997 226.612 0.199997C226.611 0.199997 226.611 0.199997 226.611 0.199997C226.611 0.199997 226.611 0.199997 226.61 0.199997C226.61 0.199997 226.61 0.199997 226.61 0.199997C226.61 0.199997 226.609 0.199997 226.609 0.199997C226.609 0.199997 226.609 0.199997 226.609 0.199997C226.609 0.199997 226.608 0.199997 226.608 0.199997C226.608 0.199997 226.608 0.199997 226.608 0.199997C226.607 0.199997 226.607 0.199997 226.607 0.199997C226.607 0.199997 226.607 0.199997 226.606 0.199997C226.606 0.199997 226.606 0.199997 226.606 0.199997C226.606 0.199997 226.606 0.199997 226.605 0.199997C226.605 0.199997 226.605 0.199997 226.605 0.199997C226.605 0.199997 226.604 0.199997 226.604 0.199997C226.604 0.199997 226.604 0.199997 226.604 0.199997C226.603 0.199997 226.603 0.199997 226.603 0.199997C226.603 0.199997 226.603 0.199997 226.603 0.199997C226.602 0.199997 226.602 0.199997 226.602 0.199997C226.602 0.199997 226.602 0.199997 226.601 0.199997C226.601 0.199997 226.601 0.199997 226.601 0.199997C226.601 0.199997 226.601 0.199997 226.6 0.199997C226.6 0.199997 226.6 0.199997 226.6 0.199997C226.6 0.199997 226.599 0.199997 226.599 0.199997C226.599 0.199997 226.599 0.199997 226.599 0.199997C226.599 0.199997 226.598 0.199997 226.598 0.199997C226.598 0.199997 226.598 0.199997 226.598 0.199997C226.597 0.199997 226.597 0.199997 226.597 0.199997C226.597 0.199997 226.597 0.199997 226.597 0.199997C226.596 0.199997 226.596 0.199997 226.596 0.199997C226.596 0.199997 226.596 0.199997 226.595 0.199997C226.595 0.199997 226.595 0.199997 226.595 0.199997C226.595 0.199997 226.595 0.199997 226.594 0.199997C226.594 0.199997 226.594 0.199997 226.594 0.199997C226.594 0.199997 226.593 0.199997 226.593 0.199997C226.593 0.199997 226.593 0.199997 226.593 0.199997C226.593 0.199997 226.592 0.199997 226.592 0.199997C226.592 0.199997 226.592 0.199997 226.592 0.199997C226.592 0.199997 226.591 0.199997 226.591 0.199997C226.591 0.199997 226.591 0.199997 226.591 0.199997C226.59 0.199997 226.59 0.199997 226.59 0.199997C226.59 0.199997 226.59 0.199997 226.59 0.199997C226.589 0.199997 226.589 0.199997 226.589 0.199997C226.589 0.199997 226.589 0.199997 226.588 0.199997C226.588 0.199997 226.588 0.199997 226.588 0.199997C226.588 0.199997 226.588 0.199997 226.587 0.199997C226.587 0.199997 226.587 0.199997 226.587 0.199997C226.587 0.199997 226.587 0.199997 226.586 0.199997C226.586 0.199997 226.586 0.199997 226.586 0.199997C226.586 0.199997 226.585 0.199997 226.585 0.199997C226.585 0.199997 226.585 0.199997 226.585 0.199997C226.585 0.199997 226.584 0.199997 226.584 0.199997C226.584 0.199997 226.584 0.199997 226.584 0.199997C226.584 0.199997 226.583 0.199997 226.583 0.199997C226.583 0.199997 226.583 0.199997 226.583 0.199997C226.583 0.199997 226.582 0.199997 226.582 0.199997C226.582 0.199997 226.582 0.199997 226.582 0.199997C226.581 0.199997 226.581 0.199997 226.581 0.199997C226.581 0.199997 226.581 0.199997 226.581 0.199997C226.58 0.199997 226.58 0.199997 226.58 0.199997C226.58 0.199997 226.58 0.199997 226.58 0.199997C226.579 0.199997 226.579 0.199997 226.579 0.199997C226.579 0.199997 226.579 0.199997 226.579 0.199997C226.578 0.199997 226.578 0.199997 226.578 0.199997C226.578 0.199997 226.578 0.199997 226.577 0.199997C226.577 0.199997 226.577 0.199997 226.577 0.199997C226.577 0.199997 226.577 0.199997 226.576 0.199997C226.576 0.199997 226.576 0.199997 226.576 0.199997C226.576 0.199997 226.576 0.199997 226.575 0.199997C226.575 0.199997 226.575 0.199997 226.575 0.199997C226.575 0.199997 226.575 0.199997 226.574 0.199997C226.574 0.199997 226.574 0.199997 226.574 0.199997C226.574 0.199997 226.574 0.199997 226.573 0.199997C226.573 0.199997 226.573 0.199997 226.573 0.199997C226.573 0.199997 226.573 0.199997 226.572 0.199997C226.572 0.199997 226.572 0.199997 226.572 0.199997C226.572 0.199997 226.572 0.199997 226.571 0.199997C226.571 0.199997 226.571 0.199997 226.571 0.199997C226.571 0.199997 226.571 0.199997 226.57 0.199997C226.57 0.199997 226.57 0.199997 226.57 0.199997C226.57 0.199997 226.57 0.199997 226.569 0.199997C226.569 0.199997 226.569 0.199997 226.569 0.199997C226.569 0.199997 226.569 0.199997 226.568 0.199997C226.568 0.199997 226.568 0.199997 226.568 0.199997C226.568 0.199997 226.568 0.199997 226.567 0.199997C226.567 0.199997 226.567 0.199997 226.567 0.199997C226.567 0.199997 226.567 0.199997 226.566 0.199997C226.566 0.199997 226.566 0.199997 226.566 0.199997C226.566 0.199997 226.566 0.199997 226.565 0.199997C226.565 0.199997 226.565 0.199997 226.565 0.199997C226.565 0.199997 226.565 0.199997 226.564 0.199997C226.564 0.199997 226.564 0.199997 226.564 0.199997C226.564 0.199997 226.564 0.199997 226.563 0.199997C226.563 0.199997 226.563 0.199997 226.563 0.199997C226.563 0.199997 226.563 0.199997 226.562 0.199997C226.562 0.199997 226.562 0.199997 226.562 0.199997C226.562 0.199997 226.562 0.199997 226.561 0.199997C226.561 0.199997 226.561 0.199997 226.561 0.199997C226.561 0.199997 226.561 0.199997 226.56 0.199997C226.56 0.199997 226.56 0.199997 226.56 0.199997C226.56 0.199997 226.56 0.199997 226.56 0.199997C226.559 0.199997 226.559 0.199997 226.559 0.199997C226.559 0.199997 226.559 0.199997 226.559 0.199997C226.558 0.199997 226.558 0.199997 226.558 0.199997C226.558 0.199997 226.558 0.199997 226.558 0.199997C226.557 0.199997 226.557 0.199997 226.557 0.199997C226.557 0.199997 226.557 0.199997 226.557 0.199997C226.556 0.199997 226.556 0.199997 226.556 0.199997C226.556 0.199997 226.556 0.199997 226.556 0.199997C226.556 0.199997 226.555 0.199997 226.555 0.199997C226.555 0.199997 226.555 0.199997 226.555 0.199997C226.555 0.199997 226.554 0.199997 226.554 0.199997C226.554 0.199997 226.554 0.199997 226.554 0.199997C226.554 0.199997 226.553 0.199997 226.553 0.199997C226.553 0.199997 226.553 0.199997 226.553 0.199997C226.553 0.199997 226.553 0.199997 226.552 0.199997C226.552 0.199997 226.552 0.199997 226.552 0.199997C226.552 0.199997 226.552 0.199997 226.551 0.199997C226.551 0.199997 226.551 0.199997 226.551 0.199997C226.551 0.199997 226.551 0.199997 226.55 0.199997C226.55 0.199997 226.55 0.199997 226.55 0.199997C226.55 0.199997 226.55 0.199997 226.55 0.199997C226.549 0.199997 226.549 0.199997 226.549 0.199997C226.549 0.199997 226.549 0.199997 226.549 0.199997C226.548 0.199997 226.548 0.199997 226.548 0.199997C226.548 0.199997 226.548 0.199997 226.548 0.199997C226.548 0.199997 226.547 0.199997 226.547 0.199997C226.547 0.199997 226.547 0.199997 226.547 0.199997C226.547 0.199997 226.546 0.199997 226.546 0.199997C226.546 0.199997 226.546 0.199997 226.546 0.199997C226.546 0.199997 226.546 0.199997 226.545 0.199997C226.545 0.199997 226.545 0.199997 226.545 0.199997C226.545 0.199997 226.545 0.199997 226.544 0.199997C226.544 0.199997 226.544 0.199997 226.544 0.199997C226.544 0.199997 226.544 0.199997 226.544 0.199997C226.543 0.199997 226.543 0.199997 226.543 0.199997C226.543 0.199997 226.543 0.199997 226.543 0.199997C226.542 0.199997 226.542 0.199997 226.542 0.199997C226.542 0.199997 226.542 0.199997 226.542 0.199997C226.542 0.199997 226.541 0.199997 226.541 0.199997C226.541 0.199997 226.541 0.199997 226.541 0.199997C226.541 0.199997 226.541 0.199997 226.54 0.199997C226.54 0.199997 226.54 0.199997 226.54 0.199997C226.54 0.199997 226.54 0.199997 226.539 0.199997C226.539 0.199997 226.539 0.199997 226.539 0.199997C226.539 0.199997 226.539 0.199997 226.539 0.199997C226.538 0.199997 226.538 0.199997 226.538 0.199997C226.538 0.199997 226.538 0.199997 226.538 0.199997C226.538 0.199997 226.537 0.199997 226.537 0.199997C226.537 0.199997 226.537 0.199997 226.537 0.199997C226.537 0.199997 226.536 0.199997 226.536 0.199997C226.536 0.199997 226.536 0.199997 226.536 0.199997C226.536 0.199997 226.536 0.199997 226.535 0.199997C226.535 0.199997 226.535 0.199997 226.535 0.199997C226.535 0.199997 226.535 0.199997 226.535 0.199997C226.534 0.199997 226.534 0.199997 226.534 0.199997C226.534 0.199997 226.534 0.199997 226.534 0.199997C226.534 0.199997 226.533 0.199997 226.533 0.199997C226.533 0.199997 226.533 0.199997 226.533 0.199997C226.533 0.199997 226.533 0.199997 226.532 0.199997C226.532 0.199997 226.532 0.199997 226.532 0.199997C226.532 0.199997 226.532 0.199997 226.532 0.199997C226.531 0.199997 226.531 0.199997 226.531 0.199997C226.531 0.199997 226.531 0.199997 226.531 0.199997C226.53 0.199997 226.53 0.199997 226.53 0.199997C226.53 0.199997 226.53 0.199997 226.53 0.199997C226.53 0.199997 226.529 0.199997 226.529 0.199997C226.529 0.199997 226.529 0.199997 226.529 0.199997C226.529 0.199997 226.529 0.199997 226.528 0.199997C226.528 0.199997 226.528 0.199997 226.528 0.199997C226.528 0.199997 226.528 0.199997 226.528 0.199997C226.527 0.199997 226.527 0.199997 226.527 0.199997C226.527 0.199997 226.527 0.199997 226.527 0.199997C226.527 0.199997 226.526 0.199997 226.526 0.199997C226.526 0.199997 226.526 0.199997 226.526 0.199997C226.526 0.199997 226.526 0.199997 226.526 0.199997C226.525 0.199997 226.525 0.199997 226.525 0.199997V2.2ZM226.849 2.2C229.644 2.2 231.978 3.17449 233.912 5.14114L235.338 3.73886C233.024 1.38551 230.174 0.199997 226.849 0.199997V2.2ZM233.924 5.15302C235.891 7.08689 236.865 9.42107 236.865 12.216H238.865C238.865 8.89093 237.68 6.0411 235.326 3.72697L233.924 5.15302ZM280.386 2.172L279.659 2.85862L279.678 2.87939L279.699 2.89901L280.386 2.172ZM281.358 39V40H282.358V39H281.358ZM275.904 38.082L275.177 38.7686L275.196 38.7894L275.217 38.809L275.904 38.082ZM274.986 1.2V0.199997H273.986V1.2H274.986ZM278.172 2.2C278.751 2.2 279.229 2.40351 279.659 2.85862L281.113 1.48537C280.319 0.644488 279.321 0.199997 278.172 0.199997V2.2ZM279.699 2.89901C280.154 3.32884 280.358 3.80679 280.358 4.386H282.358C282.358 3.23721 281.913 2.23916 281.072 1.44498L279.699 2.89901ZM280.358 4.386V39H282.358V4.386H280.358ZM281.358 38H278.172V40H281.358V38ZM278.172 38C277.572 38 277.059 37.7978 276.59 37.355L275.217 38.809C276.044 39.5902 277.044 40 278.172 40V38ZM276.631 37.3954C276.188 36.9265 275.986 36.4139 275.986 35.814H273.986C273.986 36.9421 274.396 37.9415 275.177 38.7686L276.631 37.3954ZM275.986 35.814V1.2H273.986V35.814H275.986ZM274.986 2.2H278.172V0.199997H274.986V2.2ZM343.996 3.738L343.49 4.60022L343.494 4.60294L343.996 3.738ZM350.908 10.65L350.043 11.1519L350.046 11.1565L350.908 10.65ZM350.908 29.604L351.77 30.1106L351.773 30.1059L350.908 29.604ZM343.996 36.462L343.494 35.597L343.49 35.5998L343.996 36.462ZM325.042 36.462L324.536 37.3242L324.54 37.3269L325.042 36.462ZM318.184 29.604L317.319 30.1059L317.322 30.1105L318.184 29.604ZM317.158 12.756L316.24 12.3604L316.24 12.3604L317.158 12.756ZM321.154 6.708L320.447 6.00085L320.44 6.00853L321.154 6.708ZM327.202 2.712L327.586 3.63557L327.598 3.63041L327.202 2.712ZM325.582 29.064L324.875 29.7711L324.875 29.7711L325.582 29.064ZM343.51 29.064L342.803 28.3569L342.803 28.3569L343.51 29.064ZM325.582 11.136L324.875 10.4289L324.875 10.4289L325.582 11.136ZM334.546 2.2C337.793 2.2 340.767 3.00066 343.49 4.60021L344.503 2.87579C341.465 1.09133 338.14 0.199997 334.546 0.199997V2.2ZM343.494 4.60294C346.26 6.20758 348.439 8.38643 350.043 11.1519L351.773 10.1481C349.994 7.08157 347.565 4.65242 344.498 2.87306L343.494 4.60294ZM350.046 11.1565C351.646 13.8792 352.446 16.8536 352.446 20.1H354.446C354.446 16.5064 353.555 13.1808 351.77 10.1434L350.046 11.1565ZM352.446 20.1C352.446 23.3464 351.645 26.3409 350.043 29.1021L351.773 30.1059C353.555 27.0351 354.446 23.6936 354.446 20.1H352.446ZM350.046 29.0975C348.442 31.8275 346.263 33.9907 343.494 35.5971L344.498 37.3269C347.562 35.5493 349.99 33.1405 351.77 30.1105L350.046 29.0975ZM343.49 35.5998C340.767 37.1993 337.793 38 334.546 38V40C338.14 40 341.465 39.1087 344.503 37.3242L343.49 35.5998ZM334.546 38C331.3 38 328.305 37.1993 325.544 35.5971L324.54 37.3269C327.611 39.1087 330.953 40 334.546 40V38ZM325.549 35.5998C322.816 33.9941 320.652 31.8305 319.046 29.0975L317.322 30.1105C319.1 33.1375 321.509 35.5459 324.536 37.3242L325.549 35.5998ZM319.049 29.1021C317.447 26.3409 316.646 23.3464 316.646 20.1H314.646C314.646 23.6936 315.537 27.0351 317.319 30.1059L319.049 29.1021ZM316.646 20.1C316.646 17.6796 317.123 15.3663 318.077 13.1516L316.24 12.3604C315.178 14.8257 314.646 17.4084 314.646 20.1H316.646ZM318.077 13.1516C319.04 10.9159 320.305 9.00508 321.869 7.40746L320.44 6.00853C318.691 7.79492 317.293 9.91609 316.24 12.3604L318.077 13.1516ZM321.861 7.4151C323.455 5.8211 325.36 4.56025 327.586 3.63549L326.819 1.7885C324.365 2.80774 322.237 4.21089 320.447 6.00089L321.861 7.4151ZM327.598 3.63041C329.812 2.67641 332.126 2.2 334.546 2.2V0.199997C331.855 0.199997 329.272 0.731583 326.807 1.79358L327.598 3.63041ZM324.875 29.7711C327.545 32.4414 330.787 33.79 334.546 33.79V31.79C331.321 31.79 328.587 30.6546 326.289 28.3569L324.875 29.7711ZM334.546 33.79C338.305 33.79 341.547 32.4414 344.217 29.7711L342.803 28.3569C340.505 30.6546 337.771 31.79 334.546 31.79V33.79ZM344.217 29.7711C346.888 27.1008 348.236 23.859 348.236 20.1H346.236C346.236 23.325 345.101 26.0592 342.803 28.3569L344.217 29.7711ZM348.236 20.1C348.236 16.341 346.888 13.0992 344.217 10.4289L342.803 11.8431C345.101 14.1408 346.236 16.875 346.236 20.1H348.236ZM344.217 10.4289C341.547 7.75862 338.305 6.41 334.546 6.41V8.41C337.771 8.41 340.505 9.54538 342.803 11.8431L344.217 10.4289ZM334.546 6.41C330.787 6.41 327.545 7.75862 324.875 10.4289L326.289 11.8431C328.587 9.54538 331.321 8.41 334.546 8.41V6.41ZM324.875 10.4289C322.205 13.0992 320.856 16.341 320.856 20.1H322.856C322.856 16.875 323.992 14.1408 326.289 11.8431L324.875 10.4289ZM320.856 20.1C320.856 23.859 322.205 27.1008 324.875 29.7711L326.289 28.3569C323.992 26.0592 322.856 23.325 322.856 20.1H320.856ZM425.659 1.2H426.659V0.199997H425.659V1.2ZM425.659 39V40H426.659V39H425.659ZM418.909 39L418.202 39.7071L418.495 40H418.909V39ZM418.855 38.946L418.052 39.5416L418.096 39.6009L418.148 39.6531L418.855 38.946ZM397.795 10.542L398.599 9.94641L396.795 7.51428V10.542H397.795ZM396.823 22.26L396.137 21.533L396.126 21.5428L396.116 21.5529L396.823 22.26ZM391.423 23.178H390.423V24.178H391.423V23.178ZM391.423 1.2V0.199997H390.423V1.2H391.423ZM398.173 1.2L398.88 0.492891L398.588 0.199997H398.173V1.2ZM398.227 1.254L399.031 0.658404L398.987 0.599096L398.934 0.54689L398.227 1.254ZM419.287 29.658L418.484 30.2536L420.287 32.6857V29.658H419.287ZM420.287 4.386C420.287 3.78773 420.488 3.30394 420.912 2.8791L419.498 1.46489C418.699 2.26406 418.287 3.25626 418.287 4.386H420.287ZM420.912 2.8791C421.386 2.40602 421.892 2.2 422.473 2.2V0.199997C421.327 0.199997 420.321 0.64198 419.498 1.46489L420.912 2.8791ZM422.473 2.2H425.659V0.199997H422.473V2.2ZM424.659 1.2V39H426.659V1.2H424.659ZM425.659 38H418.909V40H425.659V38ZM419.616 38.2929L419.562 38.2389L418.148 39.6531L418.202 39.7071L419.616 38.2929ZM419.659 38.3504L398.599 9.94641L396.992 11.1376L418.052 39.5416L419.659 38.3504ZM396.795 10.542V19.992H398.795V10.542H396.795ZM396.795 19.992C396.795 20.6199 396.583 21.112 396.137 21.533L397.51 22.987C398.36 22.184 398.795 21.1641 398.795 19.992H396.795ZM396.116 21.5529C395.691 21.9777 395.208 22.178 394.609 22.178V24.178C395.739 24.178 396.731 23.7663 397.53 22.9671L396.116 21.5529ZM394.609 22.178H391.423V24.178H394.609V22.178ZM392.423 23.178V1.2H390.423V23.178H392.423ZM391.423 2.2H398.173V0.199997H391.423V2.2ZM397.466 1.9071L397.52 1.9611L398.934 0.54689L398.88 0.492891L397.466 1.9071ZM397.424 1.84959L418.484 30.2536L420.091 29.0624L399.031 0.658404L397.424 1.84959ZM420.287 29.658V4.386H418.287V29.658H420.287Z" fill="#DCDCDC" mask="url(#path-1-outside-1_3_2)"/>
</svg>
