<svg width="464" height="192" viewBox="0 0 464 192" fill="none" xmlns="http://www.w3.org/2000/svg">
<path d="M157 108H181.176L195.462 85.5228H223.484L228.429 83.8782L217.989 67.9797H180.077L157 108ZM217.989 0L200.407 32.3452H222.934L233.374 14.802L277.33 89.9086L276.78 91.5533H241.615L238.868 93.198L231.176 106.904L307 107.452V103.614L247.11 0H217.989Z" fill="url(#paint0_linear_5_3)"/>
<mask id="path-2-outside-1_5_3" maskUnits="userSpaceOnUse" x="18" y="131" width="427" height="40" fill="black">
<rect fill="white" x="18" y="131" width="427" height="40"/>
<path d="M44.982 132.2L45.198 132.686L64.206 170H35.046L38.178 163.79H54L41.85 139.976L26.568 170H19.494L19.602 169.73L37.422 134.846C37.818 134.018 38.394 133.37 39.15 132.902C39.942 132.434 40.788 132.2 41.688 132.2H44.982ZM102.004 132.2C102.868 132.2 103.606 132.524 104.218 133.172C104.866 133.784 105.19 134.522 105.19 135.386V170H102.004C101.14 170 100.384 169.694 99.7359 169.082C99.1239 168.434 98.8179 167.678 98.8179 166.814V132.2H102.004ZM173.194 135.386C173.194 134.522 173.5 133.784 174.112 133.172C174.76 132.524 175.516 132.2 176.38 132.2H179.566V170H172.816L172.762 169.946L151.702 141.542V150.992C151.702 151.892 151.378 152.648 150.73 153.26C150.118 153.872 149.38 154.178 148.516 154.178H145.33V132.2H152.08L152.134 132.254L173.194 160.658V135.386ZM255.865 143.216C255.865 145.592 255.145 147.752 253.705 149.696C252.301 151.604 250.483 152.936 248.251 153.692L256.567 170H251.923C251.167 170 250.465 169.802 249.817 169.406C249.169 169.01 248.683 168.47 248.359 167.786L241.447 154.178H226.057V166.76C226.057 167.66 225.733 168.434 225.085 169.082C224.473 169.694 223.735 170 222.871 170H219.685V148.022L244.849 147.968C246.181 147.968 247.315 147.5 248.251 146.564C249.187 145.628 249.655 144.512 249.655 143.216C249.655 142.352 249.439 141.56 249.007 140.84C248.575 140.084 247.981 139.49 247.225 139.058C246.505 138.626 245.713 138.41 244.849 138.41H222.925C222.313 138.41 221.755 138.266 221.251 137.978C220.783 137.69 220.405 137.294 220.117 136.79C219.829 136.286 219.685 135.746 219.685 135.17V132.2H244.525C244.597 132.2 244.705 132.2 244.849 132.2C247.909 132.2 250.501 133.28 252.625 135.44C254.785 137.564 255.865 140.156 255.865 143.216ZM296.172 132.2C297.036 132.2 297.774 132.524 298.386 133.172C299.034 133.784 299.358 134.522 299.358 135.386V170H296.172C295.308 170 294.552 169.694 293.904 169.082C293.292 168.434 292.986 167.678 292.986 166.814V132.2H296.172ZM352.546 132.2C355.966 132.2 359.116 133.046 361.996 134.738C364.912 136.43 367.216 138.734 368.908 141.65C370.6 144.53 371.446 147.68 371.446 151.1C371.446 154.52 370.6 157.688 368.908 160.604C367.216 163.484 364.912 165.77 361.996 167.462C359.116 169.154 355.966 170 352.546 170C349.126 170 345.958 169.154 343.042 167.462C340.162 165.77 337.876 163.484 336.184 160.604C334.492 157.688 333.646 154.52 333.646 151.1C333.646 148.544 334.15 146.096 335.158 143.756C336.166 141.416 337.498 139.4 339.154 137.708C340.846 136.016 342.862 134.684 345.202 133.712C347.542 132.704 349.99 132.2 352.546 132.2ZM343.582 160.064C346.066 162.548 349.054 163.79 352.546 163.79C356.038 163.79 359.026 162.548 361.51 160.064C363.994 157.58 365.236 154.592 365.236 151.1C365.236 147.608 363.994 144.62 361.51 142.136C359.026 139.652 356.038 138.41 352.546 138.41C349.054 138.41 346.066 139.652 343.582 142.136C341.098 144.62 339.856 147.608 339.856 151.1C339.856 154.592 341.098 157.58 343.582 160.064ZM437.287 135.386C437.287 134.522 437.593 133.784 438.205 133.172C438.853 132.524 439.609 132.2 440.473 132.2H443.659V170H436.909L436.855 169.946L415.795 141.542V150.992C415.795 151.892 415.471 152.648 414.823 153.26C414.211 153.872 413.473 154.178 412.609 154.178H409.423V132.2H416.173L416.227 132.254L437.287 160.658V135.386Z"/>
</mask>
<path d="M44.982 132.2L45.198 132.686L64.206 170H35.046L38.178 163.79H54L41.85 139.976L26.568 170H19.494L19.602 169.73L37.422 134.846C37.818 134.018 38.394 133.37 39.15 132.902C39.942 132.434 40.788 132.2 41.688 132.2H44.982ZM102.004 132.2C102.868 132.2 103.606 132.524 104.218 133.172C104.866 133.784 105.19 134.522 105.19 135.386V170H102.004C101.14 170 100.384 169.694 99.7359 169.082C99.1239 168.434 98.8179 167.678 98.8179 166.814V132.2H102.004ZM173.194 135.386C173.194 134.522 173.5 133.784 174.112 133.172C174.76 132.524 175.516 132.2 176.38 132.2H179.566V170H172.816L172.762 169.946L151.702 141.542V150.992C151.702 151.892 151.378 152.648 150.73 153.26C150.118 153.872 149.38 154.178 148.516 154.178H145.33V132.2H152.08L152.134 132.254L173.194 160.658V135.386ZM255.865 143.216C255.865 145.592 255.145 147.752 253.705 149.696C252.301 151.604 250.483 152.936 248.251 153.692L256.567 170H251.923C251.167 170 250.465 169.802 249.817 169.406C249.169 169.01 248.683 168.47 248.359 167.786L241.447 154.178H226.057V166.76C226.057 167.66 225.733 168.434 225.085 169.082C224.473 169.694 223.735 170 222.871 170H219.685V148.022L244.849 147.968C246.181 147.968 247.315 147.5 248.251 146.564C249.187 145.628 249.655 144.512 249.655 143.216C249.655 142.352 249.439 141.56 249.007 140.84C248.575 140.084 247.981 139.49 247.225 139.058C246.505 138.626 245.713 138.41 244.849 138.41H222.925C222.313 138.41 221.755 138.266 221.251 137.978C220.783 137.69 220.405 137.294 220.117 136.79C219.829 136.286 219.685 135.746 219.685 135.17V132.2H244.525C244.597 132.2 244.705 132.2 244.849 132.2C247.909 132.2 250.501 133.28 252.625 135.44C254.785 137.564 255.865 140.156 255.865 143.216ZM296.172 132.2C297.036 132.2 297.774 132.524 298.386 133.172C299.034 133.784 299.358 134.522 299.358 135.386V170H296.172C295.308 170 294.552 169.694 293.904 169.082C293.292 168.434 292.986 167.678 292.986 166.814V132.2H296.172ZM352.546 132.2C355.966 132.2 359.116 133.046 361.996 134.738C364.912 136.43 367.216 138.734 368.908 141.65C370.6 144.53 371.446 147.68 371.446 151.1C371.446 154.52 370.6 157.688 368.908 160.604C367.216 163.484 364.912 165.77 361.996 167.462C359.116 169.154 355.966 170 352.546 170C349.126 170 345.958 169.154 343.042 167.462C340.162 165.77 337.876 163.484 336.184 160.604C334.492 157.688 333.646 154.52 333.646 151.1C333.646 148.544 334.15 146.096 335.158 143.756C336.166 141.416 337.498 139.4 339.154 137.708C340.846 136.016 342.862 134.684 345.202 133.712C347.542 132.704 349.99 132.2 352.546 132.2ZM343.582 160.064C346.066 162.548 349.054 163.79 352.546 163.79C356.038 163.79 359.026 162.548 361.51 160.064C363.994 157.58 365.236 154.592 365.236 151.1C365.236 147.608 363.994 144.62 361.51 142.136C359.026 139.652 356.038 138.41 352.546 138.41C349.054 138.41 346.066 139.652 343.582 142.136C341.098 144.62 339.856 147.608 339.856 151.1C339.856 154.592 341.098 157.58 343.582 160.064ZM437.287 135.386C437.287 134.522 437.593 133.784 438.205 133.172C438.853 132.524 439.609 132.2 440.473 132.2H443.659V170H436.909L436.855 169.946L415.795 141.542V150.992C415.795 151.892 415.471 152.648 414.823 153.26C414.211 153.872 413.473 154.178 412.609 154.178H409.423V132.2H416.173L416.227 132.254L437.287 160.658V135.386Z" fill="#1F1F1F"/>
<path d="M44.982 132.2L45.8958 131.794L45.6319 131.2H44.982V132.2ZM45.198 132.686L44.2842 133.092L44.2949 133.116L44.307 133.14L45.198 132.686ZM64.206 170V171H65.8377L65.097 169.546L64.206 170ZM35.046 170L34.1531 169.55L33.4217 171H35.046V170ZM38.178 163.79V162.79H37.5624L37.2851 163.34L38.178 163.79ZM54 163.79V164.79H55.6328L54.8908 163.336L54 163.79ZM41.85 139.976L42.7408 139.522L41.8489 137.774L40.9588 139.522L41.85 139.976ZM26.568 170V171H27.1811L27.4592 170.454L26.568 170ZM19.494 170L18.5655 169.629L18.017 171H19.494V170ZM19.602 169.73L18.7115 169.275L18.6906 169.316L18.6735 169.359L19.602 169.73ZM37.422 134.846L38.3125 135.301L38.3185 135.289L38.3241 135.277L37.422 134.846ZM39.15 132.902L38.6413 132.041L38.6324 132.046L38.6236 132.052L39.15 132.902ZM44.0682 132.606L44.2842 133.092L46.1118 132.28L45.8958 131.794L44.0682 132.606ZM44.307 133.14L63.315 170.454L65.097 169.546L46.0891 132.232L44.307 133.14ZM64.206 169H35.046V171H64.206V169ZM35.9389 170.45L39.0709 164.24L37.2851 163.34L34.1531 169.55L35.9389 170.45ZM38.178 164.79H54V162.79H38.178V164.79ZM54.8908 163.336L42.7408 139.522L40.9592 140.43L53.1092 164.244L54.8908 163.336ZM40.9588 139.522L25.6768 169.546L27.4592 170.454L42.7412 140.43L40.9588 139.522ZM26.568 169H19.494V171H26.568V169ZM20.4225 170.371L20.5305 170.101L18.6735 169.359L18.5655 169.629L20.4225 170.371ZM20.4925 170.185L38.3125 135.301L36.5315 134.391L18.7115 169.275L20.4925 170.185ZM38.3241 135.277C38.6404 134.616 39.0886 134.116 39.6764 133.752L38.6236 132.052C37.6994 132.624 36.9956 133.42 36.5199 134.415L38.3241 135.277ZM39.6587 133.763C40.3002 133.384 40.9711 133.2 41.688 133.2V131.2C40.6049 131.2 39.5838 131.484 38.6413 132.041L39.6587 133.763ZM41.688 133.2H44.982V131.2H41.688V133.2ZM104.218 133.172L103.491 133.859L103.51 133.879L103.531 133.899L104.218 133.172ZM105.19 170V171H106.19V170H105.19ZM99.7359 169.082L99.0089 169.769L99.0285 169.789L99.0493 169.809L99.7359 169.082ZM98.8179 132.2V131.2H97.8179V132.2H98.8179ZM102.004 133.2C102.583 133.2 103.061 133.404 103.491 133.859L104.945 132.485C104.151 131.644 103.153 131.2 102.004 131.2V133.2ZM103.531 133.899C103.986 134.329 104.19 134.807 104.19 135.386H106.19C106.19 134.237 105.745 133.239 104.905 132.445L103.531 133.899ZM104.19 135.386V170H106.19V135.386H104.19ZM105.19 169H102.004V171H105.19V169ZM102.004 169C101.404 169 100.891 168.798 100.423 168.355L99.0493 169.809C99.8764 170.59 100.876 171 102.004 171V169ZM100.463 168.395C100.02 167.927 99.8179 167.414 99.8179 166.814H97.8179C97.8179 167.942 98.2277 168.941 99.0089 169.769L100.463 168.395ZM99.8179 166.814V132.2H97.8179V166.814H99.8179ZM98.8179 133.2H102.004V131.2H98.8179V133.2ZM179.566 132.2H180.566V131.2H179.566V132.2ZM179.566 170V171H180.566V170H179.566ZM172.816 170L172.109 170.707L172.401 171H172.816V170ZM172.762 169.946L171.958 170.542L172.002 170.601L172.055 170.653L172.762 169.946ZM151.702 141.542L152.505 140.946L150.702 138.514V141.542H151.702ZM150.73 153.26L150.043 152.533L150.033 152.543L150.023 152.553L150.73 153.26ZM145.33 154.178H144.33V155.178H145.33V154.178ZM145.33 132.2V131.2H144.33V132.2H145.33ZM152.08 132.2L152.787 131.493L152.494 131.2H152.08V132.2ZM152.134 132.254L152.937 131.658L152.893 131.599L152.841 131.547L152.134 132.254ZM173.194 160.658L172.39 161.254L174.194 163.686V160.658H173.194ZM174.194 135.386C174.194 134.788 174.394 134.304 174.819 133.879L173.405 132.465C172.605 133.264 172.194 134.256 172.194 135.386H174.194ZM174.819 133.879C175.292 133.406 175.798 133.2 176.38 133.2V131.2C175.233 131.2 174.227 131.642 173.405 132.465L174.819 133.879ZM176.38 133.2H179.566V131.2H176.38V133.2ZM178.566 132.2V170H180.566V132.2H178.566ZM179.566 169H172.816V171H179.566V169ZM173.523 169.293L173.469 169.239L172.055 170.653L172.109 170.707L173.523 169.293ZM173.565 169.35L152.505 140.946L150.898 142.138L171.958 170.542L173.565 169.35ZM150.702 141.542V150.992H152.702V141.542H150.702ZM150.702 150.992C150.702 151.62 150.489 152.112 150.043 152.533L151.416 153.987C152.266 153.184 152.702 152.164 152.702 150.992H150.702ZM150.023 152.553C149.598 152.978 149.114 153.178 148.516 153.178V155.178C149.645 155.178 150.638 154.766 151.437 153.967L150.023 152.553ZM148.516 153.178H145.33V155.178H148.516V153.178ZM146.33 154.178V132.2H144.33V154.178H146.33ZM145.33 133.2H152.08V131.2H145.33V133.2ZM151.373 132.907L151.427 132.961L152.841 131.547L152.787 131.493L151.373 132.907ZM151.33 132.85L172.39 161.254L173.997 160.062L152.937 131.658L151.33 132.85ZM174.194 160.658V135.386H172.194V160.658H174.194ZM253.705 149.696L252.902 149.101L252.9 149.103L253.705 149.696ZM248.251 153.692L247.93 152.745L246.835 153.116L247.36 154.146L248.251 153.692ZM256.567 170V171H258.2L257.458 169.546L256.567 170ZM248.359 167.786L249.263 167.358L249.257 167.345L249.251 167.333L248.359 167.786ZM241.447 154.178L242.339 153.725L242.061 153.178H241.447V154.178ZM226.057 154.178V153.178H225.057V154.178H226.057ZM225.085 169.082L225.792 169.789L225.792 169.789L225.085 169.082ZM219.685 170H218.685V171H219.685V170ZM219.685 148.022L219.683 147.022L218.685 147.024V148.022H219.685ZM244.849 147.968L244.849 146.968L244.847 146.968L244.849 147.968ZM249.007 140.84L248.139 141.336L248.144 141.345L248.15 141.354L249.007 140.84ZM247.225 139.058L246.711 139.915L246.72 139.921L246.729 139.926L247.225 139.058ZM221.251 137.978L220.727 138.83L220.741 138.838L220.755 138.846L221.251 137.978ZM220.117 136.79L220.985 136.294L220.985 136.294L220.117 136.79ZM219.685 132.2V131.2H218.685V132.2H219.685ZM252.625 135.44L251.912 136.141L251.918 136.147L251.924 136.153L252.625 135.44ZM254.865 143.216C254.865 145.374 254.216 147.326 252.902 149.101L254.509 150.291C256.074 148.178 256.865 145.81 256.865 143.216H254.865ZM252.9 149.103C251.616 150.847 249.967 152.055 247.93 152.745L248.572 154.639C250.999 153.817 252.986 152.361 254.511 150.289L252.9 149.103ZM247.36 154.146L255.676 170.454L257.458 169.546L249.142 153.238L247.36 154.146ZM256.567 169H251.923V171H256.567V169ZM251.923 169C251.352 169 250.83 168.853 250.339 168.553L249.296 170.259C250.1 170.751 250.982 171 251.923 171V169ZM250.339 168.553C249.856 168.258 249.503 167.865 249.263 167.358L247.455 168.214C247.863 169.075 248.482 169.762 249.296 170.259L250.339 168.553ZM249.251 167.333L242.339 153.725L240.556 154.631L247.468 168.239L249.251 167.333ZM241.447 153.178H226.057V155.178H241.447V153.178ZM225.057 154.178V166.76H227.057V154.178H225.057ZM225.057 166.76C225.057 167.389 224.842 167.911 224.378 168.375L225.792 169.789C226.624 168.957 227.057 167.931 227.057 166.76H225.057ZM224.378 168.375C223.953 168.8 223.469 169 222.871 169V171C224.001 171 224.993 170.588 225.792 169.789L224.378 168.375ZM222.871 169H219.685V171H222.871V169ZM220.685 170V148.022H218.685V170H220.685ZM219.687 149.022L244.851 148.968L244.847 146.968L219.683 147.022L219.687 149.022ZM244.849 148.968C246.444 148.968 247.833 148.396 248.958 147.271L247.544 145.857C246.797 146.604 245.918 146.968 244.849 146.968V148.968ZM248.958 147.271C250.077 146.152 250.655 144.784 250.655 143.216H248.655C248.655 144.24 248.297 145.104 247.544 145.857L248.958 147.271ZM250.655 143.216C250.655 142.176 250.393 141.206 249.865 140.326L248.15 141.354C248.486 141.914 248.655 142.528 248.655 143.216H250.655ZM249.875 140.344C249.355 139.433 248.632 138.71 247.721 138.19L246.729 139.926C247.33 140.27 247.795 140.735 248.139 141.336L249.875 140.344ZM247.74 138.201C246.859 137.672 245.889 137.41 244.849 137.41V139.41C245.537 139.41 246.151 139.58 246.711 139.915L247.74 138.201ZM244.849 137.41H222.925V139.41H244.849V137.41ZM222.925 137.41C222.477 137.41 222.092 137.307 221.747 137.11L220.755 138.846C221.418 139.225 222.149 139.41 222.925 139.41V137.41ZM221.775 137.126C221.458 136.931 221.195 136.661 220.985 136.294L219.249 137.286C219.615 137.927 220.108 138.449 220.727 138.83L221.775 137.126ZM220.985 136.294C220.783 135.94 220.685 135.571 220.685 135.17H218.685C218.685 135.921 218.875 136.632 219.249 137.286L220.985 136.294ZM220.685 135.17V132.2H218.685V135.17H220.685ZM219.685 133.2H244.525V131.2H219.685V133.2ZM244.525 133.2C244.525 133.2 244.525 133.2 244.526 133.2C244.526 133.2 244.526 133.2 244.526 133.2C244.526 133.2 244.526 133.2 244.526 133.2C244.526 133.2 244.527 133.2 244.527 133.2C244.527 133.2 244.527 133.2 244.527 133.2C244.527 133.2 244.527 133.2 244.528 133.2C244.528 133.2 244.528 133.2 244.528 133.2C244.528 133.2 244.528 133.2 244.528 133.2C244.529 133.2 244.529 133.2 244.529 133.2C244.529 133.2 244.529 133.2 244.529 133.2C244.529 133.2 244.53 133.2 244.53 133.2C244.53 133.2 244.53 133.2 244.53 133.2C244.53 133.2 244.53 133.2 244.531 133.2C244.531 133.2 244.531 133.2 244.531 133.2C244.531 133.2 244.531 133.2 244.532 133.2C244.532 133.2 244.532 133.2 244.532 133.2C244.532 133.2 244.532 133.2 244.532 133.2C244.533 133.2 244.533 133.2 244.533 133.2C244.533 133.2 244.533 133.2 244.533 133.2C244.533 133.2 244.534 133.2 244.534 133.2C244.534 133.2 244.534 133.2 244.534 133.2C244.534 133.2 244.534 133.2 244.535 133.2C244.535 133.2 244.535 133.2 244.535 133.2C244.535 133.2 244.535 133.2 244.535 133.2C244.536 133.2 244.536 133.2 244.536 133.2C244.536 133.2 244.536 133.2 244.536 133.2C244.536 133.2 244.537 133.2 244.537 133.2C244.537 133.2 244.537 133.2 244.537 133.2C244.537 133.2 244.538 133.2 244.538 133.2C244.538 133.2 244.538 133.2 244.538 133.2C244.538 133.2 244.538 133.2 244.539 133.2C244.539 133.2 244.539 133.2 244.539 133.2C244.539 133.2 244.539 133.2 244.539 133.2C244.54 133.2 244.54 133.2 244.54 133.2C244.54 133.2 244.54 133.2 244.54 133.2C244.541 133.2 244.541 133.2 244.541 133.2C244.541 133.2 244.541 133.2 244.541 133.2C244.541 133.2 244.542 133.2 244.542 133.2C244.542 133.2 244.542 133.2 244.542 133.2C244.542 133.2 244.542 133.2 244.543 133.2C244.543 133.2 244.543 133.2 244.543 133.2C244.543 133.2 244.543 133.2 244.544 133.2C244.544 133.2 244.544 133.2 244.544 133.2C244.544 133.2 244.544 133.2 244.544 133.2C244.545 133.2 244.545 133.2 244.545 133.2C244.545 133.2 244.545 133.2 244.545 133.2C244.546 133.2 244.546 133.2 244.546 133.2C244.546 133.2 244.546 133.2 244.546 133.2C244.546 133.2 244.547 133.2 244.547 133.2C244.547 133.2 244.547 133.2 244.547 133.2C244.547 133.2 244.548 133.2 244.548 133.2C244.548 133.2 244.548 133.2 244.548 133.2C244.548 133.2 244.548 133.2 244.549 133.2C244.549 133.2 244.549 133.2 244.549 133.2C244.549 133.2 244.549 133.2 244.55 133.2C244.55 133.2 244.55 133.2 244.55 133.2C244.55 133.2 244.55 133.2 244.55 133.2C244.551 133.2 244.551 133.2 244.551 133.2C244.551 133.2 244.551 133.2 244.551 133.2C244.552 133.2 244.552 133.2 244.552 133.2C244.552 133.2 244.552 133.2 244.552 133.2C244.553 133.2 244.553 133.2 244.553 133.2C244.553 133.2 244.553 133.2 244.553 133.2C244.553 133.2 244.554 133.2 244.554 133.2C244.554 133.2 244.554 133.2 244.554 133.2C244.554 133.2 244.555 133.2 244.555 133.2C244.555 133.2 244.555 133.2 244.555 133.2C244.555 133.2 244.556 133.2 244.556 133.2C244.556 133.2 244.556 133.2 244.556 133.2C244.556 133.2 244.556 133.2 244.557 133.2C244.557 133.2 244.557 133.2 244.557 133.2C244.557 133.2 244.557 133.2 244.558 133.2C244.558 133.2 244.558 133.2 244.558 133.2C244.558 133.2 244.558 133.2 244.559 133.2C244.559 133.2 244.559 133.2 244.559 133.2C244.559 133.2 244.559 133.2 244.56 133.2C244.56 133.2 244.56 133.2 244.56 133.2C244.56 133.2 244.56 133.2 244.56 133.2C244.561 133.2 244.561 133.2 244.561 133.2C244.561 133.2 244.561 133.2 244.561 133.2C244.562 133.2 244.562 133.2 244.562 133.2C244.562 133.2 244.562 133.2 244.562 133.2C244.563 133.2 244.563 133.2 244.563 133.2C244.563 133.2 244.563 133.2 244.563 133.2C244.564 133.2 244.564 133.2 244.564 133.2C244.564 133.2 244.564 133.2 244.564 133.2C244.565 133.2 244.565 133.2 244.565 133.2C244.565 133.2 244.565 133.2 244.565 133.2C244.566 133.2 244.566 133.2 244.566 133.2C244.566 133.2 244.566 133.2 244.566 133.2C244.567 133.2 244.567 133.2 244.567 133.2C244.567 133.2 244.567 133.2 244.567 133.2C244.568 133.2 244.568 133.2 244.568 133.2C244.568 133.2 244.568 133.2 244.568 133.2C244.569 133.2 244.569 133.2 244.569 133.2C244.569 133.2 244.569 133.2 244.569 133.2C244.57 133.2 244.57 133.2 244.57 133.2C244.57 133.2 244.57 133.2 244.57 133.2C244.571 133.2 244.571 133.2 244.571 133.2C244.571 133.2 244.571 133.2 244.571 133.2C244.572 133.2 244.572 133.2 244.572 133.2C244.572 133.2 244.572 133.2 244.572 133.2C244.573 133.2 244.573 133.2 244.573 133.2C244.573 133.2 244.573 133.2 244.573 133.2C244.574 133.2 244.574 133.2 244.574 133.2C244.574 133.2 244.574 133.2 244.574 133.2C244.575 133.2 244.575 133.2 244.575 133.2C244.575 133.2 244.575 133.2 244.575 133.2C244.576 133.2 244.576 133.2 244.576 133.2C244.576 133.2 244.576 133.2 244.576 133.2C244.577 133.2 244.577 133.2 244.577 133.2C244.577 133.2 244.577 133.2 244.577 133.2C244.578 133.2 244.578 133.2 244.578 133.2C244.578 133.2 244.578 133.2 244.579 133.2C244.579 133.2 244.579 133.2 244.579 133.2C244.579 133.2 244.579 133.2 244.58 133.2C244.58 133.2 244.58 133.2 244.58 133.2C244.58 133.2 244.58 133.2 244.581 133.2C244.581 133.2 244.581 133.2 244.581 133.2C244.581 133.2 244.581 133.2 244.582 133.2C244.582 133.2 244.582 133.2 244.582 133.2C244.582 133.2 244.583 133.2 244.583 133.2C244.583 133.2 244.583 133.2 244.583 133.2C244.583 133.2 244.584 133.2 244.584 133.2C244.584 133.2 244.584 133.2 244.584 133.2C244.584 133.2 244.585 133.2 244.585 133.2C244.585 133.2 244.585 133.2 244.585 133.2C244.585 133.2 244.586 133.2 244.586 133.2C244.586 133.2 244.586 133.2 244.586 133.2C244.587 133.2 244.587 133.2 244.587 133.2C244.587 133.2 244.587 133.2 244.587 133.2C244.588 133.2 244.588 133.2 244.588 133.2C244.588 133.2 244.588 133.2 244.588 133.2C244.589 133.2 244.589 133.2 244.589 133.2C244.589 133.2 244.589 133.2 244.59 133.2C244.59 133.2 244.59 133.2 244.59 133.2C244.59 133.2 244.59 133.2 244.591 133.2C244.591 133.2 244.591 133.2 244.591 133.2C244.591 133.2 244.592 133.2 244.592 133.2C244.592 133.2 244.592 133.2 244.592 133.2C244.592 133.2 244.593 133.2 244.593 133.2C244.593 133.2 244.593 133.2 244.593 133.2C244.593 133.2 244.594 133.2 244.594 133.2C244.594 133.2 244.594 133.2 244.594 133.2C244.595 133.2 244.595 133.2 244.595 133.2C244.595 133.2 244.595 133.2 244.595 133.2C244.596 133.2 244.596 133.2 244.596 133.2C244.596 133.2 244.596 133.2 244.597 133.2C244.597 133.2 244.597 133.2 244.597 133.2C244.597 133.2 244.597 133.2 244.598 133.2C244.598 133.2 244.598 133.2 244.598 133.2C244.598 133.2 244.599 133.2 244.599 133.2C244.599 133.2 244.599 133.2 244.599 133.2C244.599 133.2 244.6 133.2 244.6 133.2C244.6 133.2 244.6 133.2 244.6 133.2C244.601 133.2 244.601 133.2 244.601 133.2C244.601 133.2 244.601 133.2 244.601 133.2C244.602 133.2 244.602 133.2 244.602 133.2C244.602 133.2 244.602 133.2 244.603 133.2C244.603 133.2 244.603 133.2 244.603 133.2C244.603 133.2 244.603 133.2 244.604 133.2C244.604 133.2 244.604 133.2 244.604 133.2C244.604 133.2 244.605 133.2 244.605 133.2C244.605 133.2 244.605 133.2 244.605 133.2C244.606 133.2 244.606 133.2 244.606 133.2C244.606 133.2 244.606 133.2 244.606 133.2C244.607 133.2 244.607 133.2 244.607 133.2C244.607 133.2 244.607 133.2 244.608 133.2C244.608 133.2 244.608 133.2 244.608 133.2C244.608 133.2 244.609 133.2 244.609 133.2C244.609 133.2 244.609 133.2 244.609 133.2C244.609 133.2 244.61 133.2 244.61 133.2C244.61 133.2 244.61 133.2 244.61 133.2C244.611 133.2 244.611 133.2 244.611 133.2C244.611 133.2 244.611 133.2 244.612 133.2C244.612 133.2 244.612 133.2 244.612 133.2C244.612 133.2 244.612 133.2 244.613 133.2C244.613 133.2 244.613 133.2 244.613 133.2C244.613 133.2 244.614 133.2 244.614 133.2C244.614 133.2 244.614 133.2 244.614 133.2C244.615 133.2 244.615 133.2 244.615 133.2C244.615 133.2 244.615 133.2 244.616 133.2C244.616 133.2 244.616 133.2 244.616 133.2C244.616 133.2 244.616 133.2 244.617 133.2C244.617 133.2 244.617 133.2 244.617 133.2C244.617 133.2 244.618 133.2 244.618 133.2C244.618 133.2 244.618 133.2 244.618 133.2C244.619 133.2 244.619 133.2 244.619 133.2C244.619 133.2 244.619 133.2 244.62 133.2C244.62 133.2 244.62 133.2 244.62 133.2C244.62 133.2 244.62 133.2 244.621 133.2C244.621 133.2 244.621 133.2 244.621 133.2C244.621 133.2 244.622 133.2 244.622 133.2C244.622 133.2 244.622 133.2 244.622 133.2C244.623 133.2 244.623 133.2 244.623 133.2C244.623 133.2 244.623 133.2 244.624 133.2C244.624 133.2 244.624 133.2 244.624 133.2C244.624 133.2 244.625 133.2 244.625 133.2C244.625 133.2 244.625 133.2 244.625 133.2C244.626 133.2 244.626 133.2 244.626 133.2C244.626 133.2 244.626 133.2 244.627 133.2C244.627 133.2 244.627 133.2 244.627 133.2C244.627 133.2 244.628 133.2 244.628 133.2C244.628 133.2 244.628 133.2 244.628 133.2C244.628 133.2 244.629 133.2 244.629 133.2C244.629 133.2 244.629 133.2 244.629 133.2C244.63 133.2 244.63 133.2 244.63 133.2C244.63 133.2 244.63 133.2 244.631 133.2C244.631 133.2 244.631 133.2 244.631 133.2C244.631 133.2 244.632 133.2 244.632 133.2C244.632 133.2 244.632 133.2 244.632 133.2C244.633 133.2 244.633 133.2 244.633 133.2C244.633 133.2 244.633 133.2 244.634 133.2C244.634 133.2 244.634 133.2 244.634 133.2C244.634 133.2 244.635 133.2 244.635 133.2C244.635 133.2 244.635 133.2 244.635 133.2C244.636 133.2 244.636 133.2 244.636 133.2C244.636 133.2 244.636 133.2 244.637 133.2C244.637 133.2 244.637 133.2 244.637 133.2C244.637 133.2 244.638 133.2 244.638 133.2C244.638 133.2 244.638 133.2 244.638 133.2C244.639 133.2 244.639 133.2 244.639 133.2C244.639 133.2 244.639 133.2 244.64 133.2C244.64 133.2 244.64 133.2 244.64 133.2C244.64 133.2 244.641 133.2 244.641 133.2C244.641 133.2 244.641 133.2 244.641 133.2C244.642 133.2 244.642 133.2 244.642 133.2C244.642 133.2 244.642 133.2 244.643 133.2C244.643 133.2 244.643 133.2 244.643 133.2C244.643 133.2 244.644 133.2 244.644 133.2C244.644 133.2 244.644 133.2 244.645 133.2C244.645 133.2 244.645 133.2 244.645 133.2C244.645 133.2 244.646 133.2 244.646 133.2C244.646 133.2 244.646 133.2 244.646 133.2C244.647 133.2 244.647 133.2 244.647 133.2C244.647 133.2 244.647 133.2 244.648 133.2C244.648 133.2 244.648 133.2 244.648 133.2C244.648 133.2 244.649 133.2 244.649 133.2C244.649 133.2 244.649 133.2 244.649 133.2C244.65 133.2 244.65 133.2 244.65 133.2C244.65 133.2 244.65 133.2 244.651 133.2C244.651 133.2 244.651 133.2 244.651 133.2C244.652 133.2 244.652 133.2 244.652 133.2C244.652 133.2 244.652 133.2 244.653 133.2C244.653 133.2 244.653 133.2 244.653 133.2C244.653 133.2 244.654 133.2 244.654 133.2C244.654 133.2 244.654 133.2 244.654 133.2C244.655 133.2 244.655 133.2 244.655 133.2C244.655 133.2 244.655 133.2 244.656 133.2C244.656 133.2 244.656 133.2 244.656 133.2C244.657 133.2 244.657 133.2 244.657 133.2C244.657 133.2 244.657 133.2 244.658 133.2C244.658 133.2 244.658 133.2 244.658 133.2C244.658 133.2 244.659 133.2 244.659 133.2C244.659 133.2 244.659 133.2 244.659 133.2C244.66 133.2 244.66 133.2 244.66 133.2C244.66 133.2 244.661 133.2 244.661 133.2C244.661 133.2 244.661 133.2 244.661 133.2C244.662 133.2 244.662 133.2 244.662 133.2C244.662 133.2 244.662 133.2 244.663 133.2C244.663 133.2 244.663 133.2 244.663 133.2C244.663 133.2 244.664 133.2 244.664 133.2C244.664 133.2 244.664 133.2 244.665 133.2C244.665 133.2 244.665 133.2 244.665 133.2C244.665 133.2 244.666 133.2 244.666 133.2C244.666 133.2 244.666 133.2 244.666 133.2C244.667 133.2 244.667 133.2 244.667 133.2C244.667 133.2 244.668 133.2 244.668 133.2C244.668 133.2 244.668 133.2 244.668 133.2C244.669 133.2 244.669 133.2 244.669 133.2C244.669 133.2 244.669 133.2 244.67 133.2C244.67 133.2 244.67 133.2 244.67 133.2C244.671 133.2 244.671 133.2 244.671 133.2C244.671 133.2 244.671 133.2 244.672 133.2C244.672 133.2 244.672 133.2 244.672 133.2C244.672 133.2 244.673 133.2 244.673 133.2C244.673 133.2 244.673 133.2 244.674 133.2C244.674 133.2 244.674 133.2 244.674 133.2C244.674 133.2 244.675 133.2 244.675 133.2C244.675 133.2 244.675 133.2 244.676 133.2C244.676 133.2 244.676 133.2 244.676 133.2C244.676 133.2 244.677 133.2 244.677 133.2C244.677 133.2 244.677 133.2 244.677 133.2C244.678 133.2 244.678 133.2 244.678 133.2C244.678 133.2 244.679 133.2 244.679 133.2C244.679 133.2 244.679 133.2 244.679 133.2C244.68 133.2 244.68 133.2 244.68 133.2C244.68 133.2 244.681 133.2 244.681 133.2C244.681 133.2 244.681 133.2 244.681 133.2C244.682 133.2 244.682 133.2 244.682 133.2C244.682 133.2 244.683 133.2 244.683 133.2C244.683 133.2 244.683 133.2 244.683 133.2C244.684 133.2 244.684 133.2 244.684 133.2C244.684 133.2 244.684 133.2 244.685 133.2C244.685 133.2 244.685 133.2 244.685 133.2C244.686 133.2 244.686 133.2 244.686 133.2C244.686 133.2 244.686 133.2 244.687 133.2C244.687 133.2 244.687 133.2 244.687 133.2C244.688 133.2 244.688 133.2 244.688 133.2C244.688 133.2 244.688 133.2 244.689 133.2C244.689 133.2 244.689 133.2 244.689 133.2C244.69 133.2 244.69 133.2 244.69 133.2C244.69 133.2 244.691 133.2 244.691 133.2C244.691 133.2 244.691 133.2 244.691 133.2C244.692 133.2 244.692 133.2 244.692 133.2C244.692 133.2 244.693 133.2 244.693 133.2C244.693 133.2 244.693 133.2 244.693 133.2C244.694 133.2 244.694 133.2 244.694 133.2C244.694 133.2 244.695 133.2 244.695 133.2C244.695 133.2 244.695 133.2 244.695 133.2C244.696 133.2 244.696 133.2 244.696 133.2C244.696 133.2 244.697 133.2 244.697 133.2C244.697 133.2 244.697 133.2 244.697 133.2C244.698 133.2 244.698 133.2 244.698 133.2C244.698 133.2 244.699 133.2 244.699 133.2C244.699 133.2 244.699 133.2 244.7 133.2C244.7 133.2 244.7 133.2 244.7 133.2C244.7 133.2 244.701 133.2 244.701 133.2C244.701 133.2 244.701 133.2 244.702 133.2C244.702 133.2 244.702 133.2 244.702 133.2C244.702 133.2 244.703 133.2 244.703 133.2C244.703 133.2 244.703 133.2 244.704 133.2C244.704 133.2 244.704 133.2 244.704 133.2C244.705 133.2 244.705 133.2 244.705 133.2C244.705 133.2 244.705 133.2 244.706 133.2C244.706 133.2 244.706 133.2 244.706 133.2C244.707 133.2 244.707 133.2 244.707 133.2C244.707 133.2 244.708 133.2 244.708 133.2C244.708 133.2 244.708 133.2 244.708 133.2C244.709 133.2 244.709 133.2 244.709 133.2C244.709 133.2 244.71 133.2 244.71 133.2C244.71 133.2 244.71 133.2 244.711 133.2C244.711 133.2 244.711 133.2 244.711 133.2C244.711 133.2 244.712 133.2 244.712 133.2C244.712 133.2 244.712 133.2 244.713 133.2C244.713 133.2 244.713 133.2 244.713 133.2C244.714 133.2 244.714 133.2 244.714 133.2C244.714 133.2 244.715 133.2 244.715 133.2C244.715 133.2 244.715 133.2 244.715 133.2C244.716 133.2 244.716 133.2 244.716 133.2C244.716 133.2 244.717 133.2 244.717 133.2C244.717 133.2 244.717 133.2 244.718 133.2C244.718 133.2 244.718 133.2 244.718 133.2C244.718 133.2 244.719 133.2 244.719 133.2C244.719 133.2 244.719 133.2 244.72 133.2C244.72 133.2 244.72 133.2 244.72 133.2C244.721 133.2 244.721 133.2 244.721 133.2C244.721 133.2 244.722 133.2 244.722 133.2C244.722 133.2 244.722 133.2 244.722 133.2C244.723 133.2 244.723 133.2 244.723 133.2C244.723 133.2 244.724 133.2 244.724 133.2C244.724 133.2 244.724 133.2 244.725 133.2C244.725 133.2 244.725 133.2 244.725 133.2C244.726 133.2 244.726 133.2 244.726 133.2C244.726 133.2 244.727 133.2 244.727 133.2C244.727 133.2 244.727 133.2 244.727 133.2C244.728 133.2 244.728 133.2 244.728 133.2C244.728 133.2 244.729 133.2 244.729 133.2C244.729 133.2 244.729 133.2 244.73 133.2C244.73 133.2 244.73 133.2 244.73 133.2C244.731 133.2 244.731 133.2 244.731 133.2C244.731 133.2 244.732 133.2 244.732 133.2C244.732 133.2 244.732 133.2 244.733 133.2C244.733 133.2 244.733 133.2 244.733 133.2C244.733 133.2 244.734 133.2 244.734 133.2C244.734 133.2 244.734 133.2 244.735 133.2C244.735 133.2 244.735 133.2 244.735 133.2C244.736 133.2 244.736 133.2 244.736 133.2C244.736 133.2 244.737 133.2 244.737 133.2C244.737 133.2 244.737 133.2 244.738 133.2C244.738 133.2 244.738 133.2 244.738 133.2C244.739 133.2 244.739 133.2 244.739 133.2C244.739 133.2 244.74 133.2 244.74 133.2C244.74 133.2 244.74 133.2 244.74 133.2C244.741 133.2 244.741 133.2 244.741 133.2C244.741 133.2 244.742 133.2 244.742 133.2C244.742 133.2 244.742 133.2 244.743 133.2C244.743 133.2 244.743 133.2 244.743 133.2C244.744 133.2 244.744 133.2 244.744 133.2C244.744 133.2 244.745 133.2 244.745 133.2C244.745 133.2 244.745 133.2 244.746 133.2C244.746 133.2 244.746 133.2 244.746 133.2C244.747 133.2 244.747 133.2 244.747 133.2C244.747 133.2 244.748 133.2 244.748 133.2C244.748 133.2 244.748 133.2 244.749 133.2C244.749 133.2 244.749 133.2 244.749 133.2C244.75 133.2 244.75 133.2 244.75 133.2C244.75 133.2 244.751 133.2 244.751 133.2C244.751 133.2 244.751 133.2 244.752 133.2C244.752 133.2 244.752 133.2 244.752 133.2C244.753 133.2 244.753 133.2 244.753 133.2C244.753 133.2 244.754 133.2 244.754 133.2C244.754 133.2 244.754 133.2 244.755 133.2C244.755 133.2 244.755 133.2 244.755 133.2C244.756 133.2 244.756 133.2 244.756 133.2C244.756 133.2 244.756 133.2 244.757 133.2C244.757 133.2 244.757 133.2 244.757 133.2C244.758 133.2 244.758 133.2 244.758 133.2C244.758 133.2 244.759 133.2 244.759 133.2C244.759 133.2 244.759 133.2 244.76 133.2C244.76 133.2 244.76 133.2 244.76 133.2C244.761 133.2 244.761 133.2 244.761 133.2C244.762 133.2 244.762 133.2 244.762 133.2C244.762 133.2 244.763 133.2 244.763 133.2C244.763 133.2 244.763 133.2 244.764 133.2C244.764 133.2 244.764 133.2 244.764 133.2C244.765 133.2 244.765 133.2 244.765 133.2C244.765 133.2 244.766 133.2 244.766 133.2C244.766 133.2 244.766 133.2 244.767 133.2C244.767 133.2 244.767 133.2 244.767 133.2C244.768 133.2 244.768 133.2 244.768 133.2C244.768 133.2 244.769 133.2 244.769 133.2C244.769 133.2 244.769 133.2 244.77 133.2C244.77 133.2 244.77 133.2 244.77 133.2C244.771 133.2 244.771 133.2 244.771 133.2C244.771 133.2 244.772 133.2 244.772 133.2C244.772 133.2 244.772 133.2 244.773 133.2C244.773 133.2 244.773 133.2 244.773 133.2C244.774 133.2 244.774 133.2 244.774 133.2C244.774 133.2 244.775 133.2 244.775 133.2C244.775 133.2 244.775 133.2 244.776 133.2C244.776 133.2 244.776 133.2 244.776 133.2C244.777 133.2 244.777 133.2 244.777 133.2C244.778 133.2 244.778 133.2 244.778 133.2C244.778 133.2 244.779 133.2 244.779 133.2C244.779 133.2 244.779 133.2 244.78 133.2C244.78 133.2 244.78 133.2 244.78 133.2C244.781 133.2 244.781 133.2 244.781 133.2C244.781 133.2 244.782 133.2 244.782 133.2C244.782 133.2 244.782 133.2 244.783 133.2C244.783 133.2 244.783 133.2 244.783 133.2C244.784 133.2 244.784 133.2 244.784 133.2C244.784 133.2 244.785 133.2 244.785 133.2C244.785 133.2 244.786 133.2 244.786 133.2C244.786 133.2 244.786 133.2 244.787 133.2C244.787 133.2 244.787 133.2 244.787 133.2C244.788 133.2 244.788 133.2 244.788 133.2C244.788 133.2 244.789 133.2 244.789 133.2C244.789 133.2 244.789 133.2 244.79 133.2C244.79 133.2 244.79 133.2 244.79 133.2C244.791 133.2 244.791 133.2 244.791 133.2C244.792 133.2 244.792 133.2 244.792 133.2C244.792 133.2 244.793 133.2 244.793 133.2C244.793 133.2 244.793 133.2 244.794 133.2C244.794 133.2 244.794 133.2 244.794 133.2C244.795 133.2 244.795 133.2 244.795 133.2C244.795 133.2 244.796 133.2 244.796 133.2C244.796 133.2 244.797 133.2 244.797 133.2C244.797 133.2 244.797 133.2 244.798 133.2C244.798 133.2 244.798 133.2 244.798 133.2C244.799 133.2 244.799 133.2 244.799 133.2C244.799 133.2 244.8 133.2 244.8 133.2C244.8 133.2 244.8 133.2 244.801 133.2C244.801 133.2 244.801 133.2 244.802 133.2C244.802 133.2 244.802 133.2 244.802 133.2C244.803 133.2 244.803 133.2 244.803 133.2C244.803 133.2 244.804 133.2 244.804 133.2C244.804 133.2 244.804 133.2 244.805 133.2C244.805 133.2 244.805 133.2 244.806 133.2C244.806 133.2 244.806 133.2 244.806 133.2C244.807 133.2 244.807 133.2 244.807 133.2C244.807 133.2 244.808 133.2 244.808 133.2C244.808 133.2 244.808 133.2 244.809 133.2C244.809 133.2 244.809 133.2 244.81 133.2C244.81 133.2 244.81 133.2 244.81 133.2C244.811 133.2 244.811 133.2 244.811 133.2C244.811 133.2 244.812 133.2 244.812 133.2C244.812 133.2 244.812 133.2 244.813 133.2C244.813 133.2 244.813 133.2 244.814 133.2C244.814 133.2 244.814 133.2 244.814 133.2C244.815 133.2 244.815 133.2 244.815 133.2C244.815 133.2 244.816 133.2 244.816 133.2C244.816 133.2 244.817 133.2 244.817 133.2C244.817 133.2 244.817 133.2 244.818 133.2C244.818 133.2 244.818 133.2 244.818 133.2C244.819 133.2 244.819 133.2 244.819 133.2C244.82 133.2 244.82 133.2 244.82 133.2C244.82 133.2 244.821 133.2 244.821 133.2C244.821 133.2 244.821 133.2 244.822 133.2C244.822 133.2 244.822 133.2 244.823 133.2C244.823 133.2 244.823 133.2 244.823 133.2C244.824 133.2 244.824 133.2 244.824 133.2C244.824 133.2 244.825 133.2 244.825 133.2C244.825 133.2 244.826 133.2 244.826 133.2C244.826 133.2 244.826 133.2 244.827 133.2C244.827 133.2 244.827 133.2 244.827 133.2C244.828 133.2 244.828 133.2 244.828 133.2C244.829 133.2 244.829 133.2 244.829 133.2C244.829 133.2 244.83 133.2 244.83 133.2C244.83 133.2 244.83 133.2 244.831 133.2C244.831 133.2 244.831 133.2 244.832 133.2C244.832 133.2 244.832 133.2 244.832 133.2C244.833 133.2 244.833 133.2 244.833 133.2C244.833 133.2 244.834 133.2 244.834 133.2C244.834 133.2 244.835 133.2 244.835 133.2C244.835 133.2 244.835 133.2 244.836 133.2C244.836 133.2 244.836 133.2 244.837 133.2C244.837 133.2 244.837 133.2 244.837 133.2C244.838 133.2 244.838 133.2 244.838 133.2C244.838 133.2 244.839 133.2 244.839 133.2C244.839 133.2 244.84 133.2 244.84 133.2C244.84 133.2 244.84 133.2 244.841 133.2C244.841 133.2 244.841 133.2 244.842 133.2C244.842 133.2 244.842 133.2 244.842 133.2C244.843 133.2 244.843 133.2 244.843 133.2C244.843 133.2 244.844 133.2 244.844 133.2C244.844 133.2 244.845 133.2 244.845 133.2C244.845 133.2 244.845 133.2 244.846 133.2C244.846 133.2 244.846 133.2 244.847 133.2C244.847 133.2 244.847 133.2 244.847 133.2C244.848 133.2 244.848 133.2 244.848 133.2C244.849 133.2 244.849 133.2 244.849 133.2V131.2C244.849 131.2 244.849 131.2 244.848 131.2C244.848 131.2 244.848 131.2 244.847 131.2C244.847 131.2 244.847 131.2 244.847 131.2C244.846 131.2 244.846 131.2 244.846 131.2C244.845 131.2 244.845 131.2 244.845 131.2C244.845 131.2 244.844 131.2 244.844 131.2C244.844 131.2 244.843 131.2 244.843 131.2C244.843 131.2 244.843 131.2 244.842 131.2C244.842 131.2 244.842 131.2 244.842 131.2C244.841 131.2 244.841 131.2 244.841 131.2C244.84 131.2 244.84 131.2 244.84 131.2C244.84 131.2 244.839 131.2 244.839 131.2C244.839 131.2 244.838 131.2 244.838 131.2C244.838 131.2 244.838 131.2 244.837 131.2C244.837 131.2 244.837 131.2 244.837 131.2C244.836 131.2 244.836 131.2 244.836 131.2C244.835 131.2 244.835 131.2 244.835 131.2C244.835 131.2 244.834 131.2 244.834 131.2C244.834 131.2 244.833 131.2 244.833 131.2C244.833 131.2 244.833 131.2 244.832 131.2C244.832 131.2 244.832 131.2 244.832 131.2C244.831 131.2 244.831 131.2 244.831 131.2C244.83 131.2 244.83 131.2 244.83 131.2C244.83 131.2 244.829 131.2 244.829 131.2C244.829 131.2 244.829 131.2 244.828 131.2C244.828 131.2 244.828 131.2 244.827 131.2C244.827 131.2 244.827 131.2 244.827 131.2C244.826 131.2 244.826 131.2 244.826 131.2C244.826 131.2 244.825 131.2 244.825 131.2C244.825 131.2 244.824 131.2 244.824 131.2C244.824 131.2 244.824 131.2 244.823 131.2C244.823 131.2 244.823 131.2 244.823 131.2C244.822 131.2 244.822 131.2 244.822 131.2C244.821 131.2 244.821 131.2 244.821 131.2C244.821 131.2 244.82 131.2 244.82 131.2C244.82 131.2 244.82 131.2 244.819 131.2C244.819 131.2 244.819 131.2 244.818 131.2C244.818 131.2 244.818 131.2 244.818 131.2C244.817 131.2 244.817 131.2 244.817 131.2C244.817 131.2 244.816 131.2 244.816 131.2C244.816 131.2 244.815 131.2 244.815 131.2C244.815 131.2 244.815 131.2 244.814 131.2C244.814 131.2 244.814 131.2 244.814 131.2C244.813 131.2 244.813 131.2 244.813 131.2C244.812 131.2 244.812 131.2 244.812 131.2C244.812 131.2 244.811 131.2 244.811 131.2C244.811 131.2 244.811 131.2 244.81 131.2C244.81 131.2 244.81 131.2 244.81 131.2C244.809 131.2 244.809 131.2 244.809 131.2C244.808 131.2 244.808 131.2 244.808 131.2C244.808 131.2 244.807 131.2 244.807 131.2C244.807 131.2 244.807 131.2 244.806 131.2C244.806 131.2 244.806 131.2 244.806 131.2C244.805 131.2 244.805 131.2 244.805 131.2C244.804 131.2 244.804 131.2 244.804 131.2C244.804 131.2 244.803 131.2 244.803 131.2C244.803 131.2 244.803 131.2 244.802 131.2C244.802 131.2 244.802 131.2 244.802 131.2C244.801 131.2 244.801 131.2 244.801 131.2C244.8 131.2 244.8 131.2 244.8 131.2C244.8 131.2 244.799 131.2 244.799 131.2C244.799 131.2 244.799 131.2 244.798 131.2C244.798 131.2 244.798 131.2 244.798 131.2C244.797 131.2 244.797 131.2 244.797 131.2C244.797 131.2 244.796 131.2 244.796 131.2C244.796 131.2 244.795 131.2 244.795 131.2C244.795 131.2 244.795 131.2 244.794 131.2C244.794 131.2 244.794 131.2 244.794 131.2C244.793 131.2 244.793 131.2 244.793 131.2C244.793 131.2 244.792 131.2 244.792 131.2C244.792 131.2 244.792 131.2 244.791 131.2C244.791 131.2 244.791 131.2 244.79 131.2C244.79 131.2 244.79 131.2 244.79 131.2C244.789 131.2 244.789 131.2 244.789 131.2C244.789 131.2 244.788 131.2 244.788 131.2C244.788 131.2 244.788 131.2 244.787 131.2C244.787 131.2 244.787 131.2 244.787 131.2C244.786 131.2 244.786 131.2 244.786 131.2C244.786 131.2 244.785 131.2 244.785 131.2C244.785 131.2 244.784 131.2 244.784 131.2C244.784 131.2 244.784 131.2 244.783 131.2C244.783 131.2 244.783 131.2 244.783 131.2C244.782 131.2 244.782 131.2 244.782 131.2C244.782 131.2 244.781 131.2 244.781 131.2C244.781 131.2 244.781 131.2 244.78 131.2C244.78 131.2 244.78 131.2 244.78 131.2C244.779 131.2 244.779 131.2 244.779 131.2C244.779 131.2 244.778 131.2 244.778 131.2C244.778 131.2 244.778 131.2 244.777 131.2C244.777 131.2 244.777 131.2 244.776 131.2C244.776 131.2 244.776 131.2 244.776 131.2C244.775 131.2 244.775 131.2 244.775 131.2C244.775 131.2 244.774 131.2 244.774 131.2C244.774 131.2 244.774 131.2 244.773 131.2C244.773 131.2 244.773 131.2 244.773 131.2C244.772 131.2 244.772 131.2 244.772 131.2C244.772 131.2 244.771 131.2 244.771 131.2C244.771 131.2 244.771 131.2 244.77 131.2C244.77 131.2 244.77 131.2 244.77 131.2C244.769 131.2 244.769 131.2 244.769 131.2C244.769 131.2 244.768 131.2 244.768 131.2C244.768 131.2 244.768 131.2 244.767 131.2C244.767 131.2 244.767 131.2 244.767 131.2C244.766 131.2 244.766 131.2 244.766 131.2C244.766 131.2 244.765 131.2 244.765 131.2C244.765 131.2 244.765 131.2 244.764 131.2C244.764 131.2 244.764 131.2 244.764 131.2C244.763 131.2 244.763 131.2 244.763 131.2C244.763 131.2 244.762 131.2 244.762 131.2C244.762 131.2 244.762 131.2 244.761 131.2C244.761 131.2 244.761 131.2 244.76 131.2C244.76 131.2 244.76 131.2 244.76 131.2C244.759 131.2 244.759 131.2 244.759 131.2C244.759 131.2 244.758 131.2 244.758 131.2C244.758 131.2 244.758 131.2 244.757 131.2C244.757 131.2 244.757 131.2 244.757 131.2C244.756 131.2 244.756 131.2 244.756 131.2C244.756 131.2 244.756 131.2 244.755 131.2C244.755 131.2 244.755 131.2 244.755 131.2C244.754 131.2 244.754 131.2 244.754 131.2C244.754 131.2 244.753 131.2 244.753 131.2C244.753 131.2 244.753 131.2 244.752 131.2C244.752 131.2 244.752 131.2 244.752 131.2C244.751 131.2 244.751 131.2 244.751 131.2C244.751 131.2 244.75 131.2 244.75 131.2C244.75 131.2 244.75 131.2 244.749 131.2C244.749 131.2 244.749 131.2 244.749 131.2C244.748 131.2 244.748 131.2 244.748 131.2C244.748 131.2 244.747 131.2 244.747 131.2C244.747 131.2 244.747 131.2 244.746 131.2C244.746 131.2 244.746 131.2 244.746 131.2C244.745 131.2 244.745 131.2 244.745 131.2C244.745 131.2 244.744 131.2 244.744 131.2C244.744 131.2 244.744 131.2 244.743 131.2C244.743 131.2 244.743 131.2 244.743 131.2C244.742 131.2 244.742 131.2 244.742 131.2C244.742 131.2 244.741 131.2 244.741 131.2C244.741 131.2 244.741 131.2 244.74 131.2C244.74 131.2 244.74 131.2 244.74 131.2C244.74 131.2 244.739 131.2 244.739 131.2C244.739 131.2 244.739 131.2 244.738 131.2C244.738 131.2 244.738 131.2 244.738 131.2C244.737 131.2 244.737 131.2 244.737 131.2C244.737 131.2 244.736 131.2 244.736 131.2C244.736 131.2 244.736 131.2 244.735 131.2C244.735 131.2 244.735 131.2 244.735 131.2C244.734 131.2 244.734 131.2 244.734 131.2C244.734 131.2 244.733 131.2 244.733 131.2C244.733 131.2 244.733 131.2 244.733 131.2C244.732 131.2 244.732 131.2 244.732 131.2C244.732 131.2 244.731 131.2 244.731 131.2C244.731 131.2 244.731 131.2 244.73 131.2C244.73 131.2 244.73 131.2 244.73 131.2C244.729 131.2 244.729 131.2 244.729 131.2C244.729 131.2 244.728 131.2 244.728 131.2C244.728 131.2 244.728 131.2 244.727 131.2C244.727 131.2 244.727 131.2 244.727 131.2C244.727 131.2 244.726 131.2 244.726 131.2C244.726 131.2 244.726 131.2 244.725 131.2C244.725 131.2 244.725 131.2 244.725 131.2C244.724 131.2 244.724 131.2 244.724 131.2C244.724 131.2 244.723 131.2 244.723 131.2C244.723 131.2 244.723 131.2 244.722 131.2C244.722 131.2 244.722 131.2 244.722 131.2C244.722 131.2 244.721 131.2 244.721 131.2C244.721 131.2 244.721 131.2 244.72 131.2C244.72 131.2 244.72 131.2 244.72 131.2C244.719 131.2 244.719 131.2 244.719 131.2C244.719 131.2 244.718 131.2 244.718 131.2C244.718 131.2 244.718 131.2 244.718 131.2C244.717 131.2 244.717 131.2 244.717 131.2C244.717 131.2 244.716 131.2 244.716 131.2C244.716 131.2 244.716 131.2 244.715 131.2C244.715 131.2 244.715 131.2 244.715 131.2C244.715 131.2 244.714 131.2 244.714 131.2C244.714 131.2 244.714 131.2 244.713 131.2C244.713 131.2 244.713 131.2 244.713 131.2C244.712 131.2 244.712 131.2 244.712 131.2C244.712 131.2 244.711 131.2 244.711 131.2C244.711 131.2 244.711 131.2 244.711 131.2C244.71 131.2 244.71 131.2 244.71 131.2C244.71 131.2 244.709 131.2 244.709 131.2C244.709 131.2 244.709 131.2 244.708 131.2C244.708 131.2 244.708 131.2 244.708 131.2C244.708 131.2 244.707 131.2 244.707 131.2C244.707 131.2 244.707 131.2 244.706 131.2C244.706 131.2 244.706 131.2 244.706 131.2C244.705 131.2 244.705 131.2 244.705 131.2C244.705 131.2 244.705 131.2 244.704 131.2C244.704 131.2 244.704 131.2 244.704 131.2C244.703 131.2 244.703 131.2 244.703 131.2C244.703 131.2 244.702 131.2 244.702 131.2C244.702 131.2 244.702 131.2 244.702 131.2C244.701 131.2 244.701 131.2 244.701 131.2C244.701 131.2 244.7 131.2 244.7 131.2C244.7 131.2 244.7 131.2 244.7 131.2C244.699 131.2 244.699 131.2 244.699 131.2C244.699 131.2 244.698 131.2 244.698 131.2C244.698 131.2 244.698 131.2 244.697 131.2C244.697 131.2 244.697 131.2 244.697 131.2C244.697 131.2 244.696 131.2 244.696 131.2C244.696 131.2 244.696 131.2 244.695 131.2C244.695 131.2 244.695 131.2 244.695 131.2C244.695 131.2 244.694 131.2 244.694 131.2C244.694 131.2 244.694 131.2 244.693 131.2C244.693 131.2 244.693 131.2 244.693 131.2C244.693 131.2 244.692 131.2 244.692 131.2C244.692 131.2 244.692 131.2 244.691 131.2C244.691 131.2 244.691 131.2 244.691 131.2C244.691 131.2 244.69 131.2 244.69 131.2C244.69 131.2 244.69 131.2 244.689 131.2C244.689 131.2 244.689 131.2 244.689 131.2C244.688 131.2 244.688 131.2 244.688 131.2C244.688 131.2 244.688 131.2 244.687 131.2C244.687 131.2 244.687 131.2 244.687 131.2C244.686 131.2 244.686 131.2 244.686 131.2C244.686 131.2 244.686 131.2 244.685 131.2C244.685 131.2 244.685 131.2 244.685 131.2C244.684 131.2 244.684 131.2 244.684 131.2C244.684 131.2 244.684 131.2 244.683 131.2C244.683 131.2 244.683 131.2 244.683 131.2C244.683 131.2 244.682 131.2 244.682 131.2C244.682 131.2 244.682 131.2 244.681 131.2C244.681 131.2 244.681 131.2 244.681 131.2C244.681 131.2 244.68 131.2 244.68 131.2C244.68 131.2 244.68 131.2 244.679 131.2C244.679 131.2 244.679 131.2 244.679 131.2C244.679 131.2 244.678 131.2 244.678 131.2C244.678 131.2 244.678 131.2 244.677 131.2C244.677 131.2 244.677 131.2 244.677 131.2C244.677 131.2 244.676 131.2 244.676 131.2C244.676 131.2 244.676 131.2 244.676 131.2C244.675 131.2 244.675 131.2 244.675 131.2C244.675 131.2 244.674 131.2 244.674 131.2C244.674 131.2 244.674 131.2 244.674 131.2C244.673 131.2 244.673 131.2 244.673 131.2C244.673 131.2 244.672 131.2 244.672 131.2C244.672 131.2 244.672 131.2 244.672 131.2C244.671 131.2 244.671 131.2 244.671 131.2C244.671 131.2 244.671 131.2 244.67 131.2C244.67 131.2 244.67 131.2 244.67 131.2C244.669 131.2 244.669 131.2 244.669 131.2C244.669 131.2 244.669 131.2 244.668 131.2C244.668 131.2 244.668 131.2 244.668 131.2C244.668 131.2 244.667 131.2 244.667 131.2C244.667 131.2 244.667 131.2 244.666 131.2C244.666 131.2 244.666 131.2 244.666 131.2C244.666 131.2 244.665 131.2 244.665 131.2C244.665 131.2 244.665 131.2 244.665 131.2C244.664 131.2 244.664 131.2 244.664 131.2C244.664 131.2 244.663 131.2 244.663 131.2C244.663 131.2 244.663 131.2 244.663 131.2C244.662 131.2 244.662 131.2 244.662 131.2C244.662 131.2 244.662 131.2 244.661 131.2C244.661 131.2 244.661 131.2 244.661 131.2C244.661 131.2 244.66 131.2 244.66 131.2C244.66 131.2 244.66 131.2 244.659 131.2C244.659 131.2 244.659 131.2 244.659 131.2C244.659 131.2 244.658 131.2 244.658 131.2C244.658 131.2 244.658 131.2 244.658 131.2C244.657 131.2 244.657 131.2 244.657 131.2C244.657 131.2 244.657 131.2 244.656 131.2C244.656 131.2 244.656 131.2 244.656 131.2C244.655 131.2 244.655 131.2 244.655 131.2C244.655 131.2 244.655 131.2 244.654 131.2C244.654 131.2 244.654 131.2 244.654 131.2C244.654 131.2 244.653 131.2 244.653 131.2C244.653 131.2 244.653 131.2 244.653 131.2C244.652 131.2 244.652 131.2 244.652 131.2C244.652 131.2 244.652 131.2 244.651 131.2C244.651 131.2 244.651 131.2 244.651 131.2C244.65 131.2 244.65 131.2 244.65 131.2C244.65 131.2 244.65 131.2 244.649 131.2C244.649 131.2 244.649 131.2 244.649 131.2C244.649 131.2 244.648 131.2 244.648 131.2C244.648 131.2 244.648 131.2 244.648 131.2C244.647 131.2 244.647 131.2 244.647 131.2C244.647 131.2 244.647 131.2 244.646 131.2C244.646 131.2 244.646 131.2 244.646 131.2C244.646 131.2 244.645 131.2 244.645 131.2C244.645 131.2 244.645 131.2 244.645 131.2C244.644 131.2 244.644 131.2 244.644 131.2C244.644 131.2 244.643 131.2 244.643 131.2C244.643 131.2 244.643 131.2 244.643 131.2C244.642 131.2 244.642 131.2 244.642 131.2C244.642 131.2 244.642 131.2 244.641 131.2C244.641 131.2 244.641 131.2 244.641 131.2C244.641 131.2 244.64 131.2 244.64 131.2C244.64 131.2 244.64 131.2 244.64 131.2C244.639 131.2 244.639 131.2 244.639 131.2C244.639 131.2 244.639 131.2 244.638 131.2C244.638 131.2 244.638 131.2 244.638 131.2C244.638 131.2 244.637 131.2 244.637 131.2C244.637 131.2 244.637 131.2 244.637 131.2C244.636 131.2 244.636 131.2 244.636 131.2C244.636 131.2 244.636 131.2 244.635 131.2C244.635 131.2 244.635 131.2 244.635 131.2C244.635 131.2 244.634 131.2 244.634 131.2C244.634 131.2 244.634 131.2 244.634 131.2C244.633 131.2 244.633 131.2 244.633 131.2C244.633 131.2 244.633 131.2 244.632 131.2C244.632 131.2 244.632 131.2 244.632 131.2C244.632 131.2 244.631 131.2 244.631 131.2C244.631 131.2 244.631 131.2 244.631 131.2C244.63 131.2 244.63 131.2 244.63 131.2C244.63 131.2 244.63 131.2 244.629 131.2C244.629 131.2 244.629 131.2 244.629 131.2C244.629 131.2 244.628 131.2 244.628 131.2C244.628 131.2 244.628 131.2 244.628 131.2C244.628 131.2 244.627 131.2 244.627 131.2C244.627 131.2 244.627 131.2 244.627 131.2C244.626 131.2 244.626 131.2 244.626 131.2C244.626 131.2 244.626 131.2 244.625 131.2C244.625 131.2 244.625 131.2 244.625 131.2C244.625 131.2 244.624 131.2 244.624 131.2C244.624 131.2 244.624 131.2 244.624 131.2C244.623 131.2 244.623 131.2 244.623 131.2C244.623 131.2 244.623 131.2 244.622 131.2C244.622 131.2 244.622 131.2 244.622 131.2C244.622 131.2 244.621 131.2 244.621 131.2C244.621 131.2 244.621 131.2 244.621 131.2C244.62 131.2 244.62 131.2 244.62 131.2C244.62 131.2 244.62 131.2 244.62 131.2C244.619 131.2 244.619 131.2 244.619 131.2C244.619 131.2 244.619 131.2 244.618 131.2C244.618 131.2 244.618 131.2 244.618 131.2C244.618 131.2 244.617 131.2 244.617 131.2C244.617 131.2 244.617 131.2 244.617 131.2C244.616 131.2 244.616 131.2 244.616 131.2C244.616 131.2 244.616 131.2 244.616 131.2C244.615 131.2 244.615 131.2 244.615 131.2C244.615 131.2 244.615 131.2 244.614 131.2C244.614 131.2 244.614 131.2 244.614 131.2C244.614 131.2 244.613 131.2 244.613 131.2C244.613 131.2 244.613 131.2 244.613 131.2C244.612 131.2 244.612 131.2 244.612 131.2C244.612 131.2 244.612 131.2 244.612 131.2C244.611 131.2 244.611 131.2 244.611 131.2C244.611 131.2 244.611 131.2 244.61 131.2C244.61 131.2 244.61 131.2 244.61 131.2C244.61 131.2 244.609 131.2 244.609 131.2C244.609 131.2 244.609 131.2 244.609 131.2C244.609 131.2 244.608 131.2 244.608 131.2C244.608 131.2 244.608 131.2 244.608 131.2C244.607 131.2 244.607 131.2 244.607 131.2C244.607 131.2 244.607 131.2 244.606 131.2C244.606 131.2 244.606 131.2 244.606 131.2C244.606 131.2 244.606 131.2 244.605 131.2C244.605 131.2 244.605 131.2 244.605 131.2C244.605 131.2 244.604 131.2 244.604 131.2C244.604 131.2 244.604 131.2 244.604 131.2C244.603 131.2 244.603 131.2 244.603 131.2C244.603 131.2 244.603 131.2 244.603 131.2C244.602 131.2 244.602 131.2 244.602 131.2C244.602 131.2 244.602 131.2 244.601 131.2C244.601 131.2 244.601 131.2 244.601 131.2C244.601 131.2 244.601 131.2 244.6 131.2C244.6 131.2 244.6 131.2 244.6 131.2C244.6 131.2 244.599 131.2 244.599 131.2C244.599 131.2 244.599 131.2 244.599 131.2C244.599 131.2 244.598 131.2 244.598 131.2C244.598 131.2 244.598 131.2 244.598 131.2C244.597 131.2 244.597 131.2 244.597 131.2C244.597 131.2 244.597 131.2 244.597 131.2C244.596 131.2 244.596 131.2 244.596 131.2C244.596 131.2 244.596 131.2 244.595 131.2C244.595 131.2 244.595 131.2 244.595 131.2C244.595 131.2 244.595 131.2 244.594 131.2C244.594 131.2 244.594 131.2 244.594 131.2C244.594 131.2 244.593 131.2 244.593 131.2C244.593 131.2 244.593 131.2 244.593 131.2C244.593 131.2 244.592 131.2 244.592 131.2C244.592 131.2 244.592 131.2 244.592 131.2C244.592 131.2 244.591 131.2 244.591 131.2C244.591 131.2 244.591 131.2 244.591 131.2C244.59 131.2 244.59 131.2 244.59 131.2C244.59 131.2 244.59 131.2 244.59 131.2C244.589 131.2 244.589 131.2 244.589 131.2C244.589 131.2 244.589 131.2 244.588 131.2C244.588 131.2 244.588 131.2 244.588 131.2C244.588 131.2 244.588 131.2 244.587 131.2C244.587 131.2 244.587 131.2 244.587 131.2C244.587 131.2 244.587 131.2 244.586 131.2C244.586 131.2 244.586 131.2 244.586 131.2C244.586 131.2 244.585 131.2 244.585 131.2C244.585 131.2 244.585 131.2 244.585 131.2C244.585 131.2 244.584 131.2 244.584 131.2C244.584 131.2 244.584 131.2 244.584 131.2C244.584 131.2 244.583 131.2 244.583 131.2C244.583 131.2 244.583 131.2 244.583 131.2C244.583 131.2 244.582 131.2 244.582 131.2C244.582 131.2 244.582 131.2 244.582 131.2C244.581 131.2 244.581 131.2 244.581 131.2C244.581 131.2 244.581 131.2 244.581 131.2C244.58 131.2 244.58 131.2 244.58 131.2C244.58 131.2 244.58 131.2 244.58 131.2C244.579 131.2 244.579 131.2 244.579 131.2C244.579 131.2 244.579 131.2 244.579 131.2C244.578 131.2 244.578 131.2 244.578 131.2C244.578 131.2 244.578 131.2 244.577 131.2C244.577 131.2 244.577 131.2 244.577 131.2C244.577 131.2 244.577 131.2 244.576 131.2C244.576 131.2 244.576 131.2 244.576 131.2C244.576 131.2 244.576 131.2 244.575 131.2C244.575 131.2 244.575 131.2 244.575 131.2C244.575 131.2 244.575 131.2 244.574 131.2C244.574 131.2 244.574 131.2 244.574 131.2C244.574 131.2 244.574 131.2 244.573 131.2C244.573 131.2 244.573 131.2 244.573 131.2C244.573 131.2 244.573 131.2 244.572 131.2C244.572 131.2 244.572 131.2 244.572 131.2C244.572 131.2 244.572 131.2 244.571 131.2C244.571 131.2 244.571 131.2 244.571 131.2C244.571 131.2 244.571 131.2 244.57 131.2C244.57 131.2 244.57 131.2 244.57 131.2C244.57 131.2 244.57 131.2 244.569 131.2C244.569 131.2 244.569 131.2 244.569 131.2C244.569 131.2 244.569 131.2 244.568 131.2C244.568 131.2 244.568 131.2 244.568 131.2C244.568 131.2 244.568 131.2 244.567 131.2C244.567 131.2 244.567 131.2 244.567 131.2C244.567 131.2 244.567 131.2 244.566 131.2C244.566 131.2 244.566 131.2 244.566 131.2C244.566 131.2 244.566 131.2 244.565 131.2C244.565 131.2 244.565 131.2 244.565 131.2C244.565 131.2 244.565 131.2 244.564 131.2C244.564 131.2 244.564 131.2 244.564 131.2C244.564 131.2 244.564 131.2 244.563 131.2C244.563 131.2 244.563 131.2 244.563 131.2C244.563 131.2 244.563 131.2 244.562 131.2C244.562 131.2 244.562 131.2 244.562 131.2C244.562 131.2 244.562 131.2 244.561 131.2C244.561 131.2 244.561 131.2 244.561 131.2C244.561 131.2 244.561 131.2 244.56 131.2C244.56 131.2 244.56 131.2 244.56 131.2C244.56 131.2 244.56 131.2 244.56 131.2C244.559 131.2 244.559 131.2 244.559 131.2C244.559 131.2 244.559 131.2 244.559 131.2C244.558 131.2 244.558 131.2 244.558 131.2C244.558 131.2 244.558 131.2 244.558 131.2C244.557 131.2 244.557 131.2 244.557 131.2C244.557 131.2 244.557 131.2 244.557 131.2C244.556 131.2 244.556 131.2 244.556 131.2C244.556 131.2 244.556 131.2 244.556 131.2C244.556 131.2 244.555 131.2 244.555 131.2C244.555 131.2 244.555 131.2 244.555 131.2C244.555 131.2 244.554 131.2 244.554 131.2C244.554 131.2 244.554 131.2 244.554 131.2C244.554 131.2 244.553 131.2 244.553 131.2C244.553 131.2 244.553 131.2 244.553 131.2C244.553 131.2 244.553 131.2 244.552 131.2C244.552 131.2 244.552 131.2 244.552 131.2C244.552 131.2 244.552 131.2 244.551 131.2C244.551 131.2 244.551 131.2 244.551 131.2C244.551 131.2 244.551 131.2 244.55 131.2C244.55 131.2 244.55 131.2 244.55 131.2C244.55 131.2 244.55 131.2 244.55 131.2C244.549 131.2 244.549 131.2 244.549 131.2C244.549 131.2 244.549 131.2 244.549 131.2C244.548 131.2 244.548 131.2 244.548 131.2C244.548 131.2 244.548 131.2 244.548 131.2C244.548 131.2 244.547 131.2 244.547 131.2C244.547 131.2 244.547 131.2 244.547 131.2C244.547 131.2 244.546 131.2 244.546 131.2C244.546 131.2 244.546 131.2 244.546 131.2C244.546 131.2 244.546 131.2 244.545 131.2C244.545 131.2 244.545 131.2 244.545 131.2C244.545 131.2 244.545 131.2 244.544 131.2C244.544 131.2 244.544 131.2 244.544 131.2C244.544 131.2 244.544 131.2 244.544 131.2C244.543 131.2 244.543 131.2 244.543 131.2C244.543 131.2 244.543 131.2 244.543 131.2C244.542 131.2 244.542 131.2 244.542 131.2C244.542 131.2 244.542 131.2 244.542 131.2C244.542 131.2 244.541 131.2 244.541 131.2C244.541 131.2 244.541 131.2 244.541 131.2C244.541 131.2 244.541 131.2 244.54 131.2C244.54 131.2 244.54 131.2 244.54 131.2C244.54 131.2 244.54 131.2 244.539 131.2C244.539 131.2 244.539 131.2 244.539 131.2C244.539 131.2 244.539 131.2 244.539 131.2C244.538 131.2 244.538 131.2 244.538 131.2C244.538 131.2 244.538 131.2 244.538 131.2C244.538 131.2 244.537 131.2 244.537 131.2C244.537 131.2 244.537 131.2 244.537 131.2C244.537 131.2 244.536 131.2 244.536 131.2C244.536 131.2 244.536 131.2 244.536 131.2C244.536 131.2 244.536 131.2 244.535 131.2C244.535 131.2 244.535 131.2 244.535 131.2C244.535 131.2 244.535 131.2 244.535 131.2C244.534 131.2 244.534 131.2 244.534 131.2C244.534 131.2 244.534 131.2 244.534 131.2C244.534 131.2 244.533 131.2 244.533 131.2C244.533 131.2 244.533 131.2 244.533 131.2C244.533 131.2 244.533 131.2 244.532 131.2C244.532 131.2 244.532 131.2 244.532 131.2C244.532 131.2 244.532 131.2 244.532 131.2C244.531 131.2 244.531 131.2 244.531 131.2C244.531 131.2 244.531 131.2 244.531 131.2C244.53 131.2 244.53 131.2 244.53 131.2C244.53 131.2 244.53 131.2 244.53 131.2C244.53 131.2 244.529 131.2 244.529 131.2C244.529 131.2 244.529 131.2 244.529 131.2C244.529 131.2 244.529 131.2 244.528 131.2C244.528 131.2 244.528 131.2 244.528 131.2C244.528 131.2 244.528 131.2 244.528 131.2C244.527 131.2 244.527 131.2 244.527 131.2C244.527 131.2 244.527 131.2 244.527 131.2C244.527 131.2 244.526 131.2 244.526 131.2C244.526 131.2 244.526 131.2 244.526 131.2C244.526 131.2 244.526 131.2 244.526 131.2C244.525 131.2 244.525 131.2 244.525 131.2V133.2ZM244.849 133.2C247.644 133.2 249.978 134.174 251.912 136.141L253.338 134.739C251.024 132.386 248.174 131.2 244.849 131.2V133.2ZM251.924 136.153C253.891 138.087 254.865 140.421 254.865 143.216H256.865C256.865 139.891 255.68 137.041 253.326 134.727L251.924 136.153ZM298.386 133.172L297.659 133.859L297.678 133.879L297.699 133.899L298.386 133.172ZM299.358 170V171H300.358V170H299.358ZM293.904 169.082L293.177 169.769L293.196 169.789L293.217 169.809L293.904 169.082ZM292.986 132.2V131.2H291.986V132.2H292.986ZM296.172 133.2C296.751 133.2 297.229 133.404 297.659 133.859L299.113 132.485C298.319 131.644 297.321 131.2 296.172 131.2V133.2ZM297.699 133.899C298.154 134.329 298.358 134.807 298.358 135.386H300.358C300.358 134.237 299.913 133.239 299.072 132.445L297.699 133.899ZM298.358 135.386V170H300.358V135.386H298.358ZM299.358 169H296.172V171H299.358V169ZM296.172 169C295.572 169 295.059 168.798 294.59 168.355L293.217 169.809C294.044 170.59 295.044 171 296.172 171V169ZM294.631 168.395C294.188 167.927 293.986 167.414 293.986 166.814H291.986C291.986 167.942 292.396 168.941 293.177 169.769L294.631 168.395ZM293.986 166.814V132.2H291.986V166.814H293.986ZM292.986 133.2H296.172V131.2H292.986V133.2ZM361.996 134.738L361.49 135.6L361.494 135.603L361.996 134.738ZM368.908 141.65L368.043 142.152L368.046 142.157L368.908 141.65ZM368.908 160.604L369.77 161.111L369.773 161.106L368.908 160.604ZM361.996 167.462L361.494 166.597L361.49 166.6L361.996 167.462ZM343.042 167.462L342.536 168.324L342.54 168.327L343.042 167.462ZM336.184 160.604L335.319 161.106L335.322 161.111L336.184 160.604ZM335.158 143.756L334.24 143.36L334.24 143.36L335.158 143.756ZM339.154 137.708L338.447 137.001L338.44 137.009L339.154 137.708ZM345.202 133.712L345.586 134.636L345.598 134.63L345.202 133.712ZM343.582 160.064L342.875 160.771L342.875 160.771L343.582 160.064ZM361.51 160.064L360.803 159.357L360.803 159.357L361.51 160.064ZM343.582 142.136L342.875 141.429L342.875 141.429L343.582 142.136ZM352.546 133.2C355.793 133.2 358.767 134.001 361.49 135.6L362.503 133.876C359.465 132.091 356.14 131.2 352.546 131.2V133.2ZM361.494 135.603C364.26 137.208 366.439 139.386 368.043 142.152L369.773 141.148C367.994 138.082 365.565 135.652 362.498 133.873L361.494 135.603ZM368.046 142.157C369.646 144.879 370.446 147.854 370.446 151.1H372.446C372.446 147.506 371.555 144.181 369.77 141.143L368.046 142.157ZM370.446 151.1C370.446 154.346 369.645 157.341 368.043 160.102L369.773 161.106C371.555 158.035 372.446 154.694 372.446 151.1H370.446ZM368.046 160.097C366.442 162.828 364.263 164.991 361.494 166.597L362.498 168.327C365.562 166.549 367.99 164.14 369.77 161.111L368.046 160.097ZM361.49 166.6C358.767 168.199 355.793 169 352.546 169V171C356.14 171 359.465 170.109 362.503 168.324L361.49 166.6ZM352.546 169C349.3 169 346.305 168.199 343.544 166.597L342.54 168.327C345.611 170.109 348.953 171 352.546 171V169ZM343.549 166.6C340.816 164.994 338.652 162.831 337.046 160.097L335.322 161.111C337.1 164.137 339.509 166.546 342.536 168.324L343.549 166.6ZM337.049 160.102C335.447 157.341 334.646 154.346 334.646 151.1H332.646C332.646 154.694 333.537 158.035 335.319 161.106L337.049 160.102ZM334.646 151.1C334.646 148.68 335.123 146.366 336.077 144.152L334.24 143.36C333.178 145.826 332.646 148.408 332.646 151.1H334.646ZM336.077 144.152C337.04 141.916 338.305 140.005 339.869 138.407L338.44 137.009C336.691 138.795 335.293 140.916 334.24 143.36L336.077 144.152ZM339.861 138.415C341.455 136.821 343.36 135.56 345.586 134.635L344.819 132.789C342.365 133.808 340.237 135.211 338.447 137.001L339.861 138.415ZM345.598 134.63C347.812 133.676 350.126 133.2 352.546 133.2V131.2C349.855 131.2 347.272 131.732 344.807 132.794L345.598 134.63ZM342.875 160.771C345.545 163.441 348.787 164.79 352.546 164.79V162.79C349.321 162.79 346.587 161.655 344.289 159.357L342.875 160.771ZM352.546 164.79C356.305 164.79 359.547 163.441 362.217 160.771L360.803 159.357C358.505 161.655 355.771 162.79 352.546 162.79V164.79ZM362.217 160.771C364.888 158.101 366.236 154.859 366.236 151.1H364.236C364.236 154.325 363.101 157.059 360.803 159.357L362.217 160.771ZM366.236 151.1C366.236 147.341 364.888 144.099 362.217 141.429L360.803 142.843C363.101 145.141 364.236 147.875 364.236 151.1H366.236ZM362.217 141.429C359.547 138.759 356.305 137.41 352.546 137.41V139.41C355.771 139.41 358.505 140.545 360.803 142.843L362.217 141.429ZM352.546 137.41C348.787 137.41 345.545 138.759 342.875 141.429L344.289 142.843C346.587 140.545 349.321 139.41 352.546 139.41V137.41ZM342.875 141.429C340.205 144.099 338.856 147.341 338.856 151.1H340.856C340.856 147.875 341.992 145.141 344.289 142.843L342.875 141.429ZM338.856 151.1C338.856 154.859 340.205 158.101 342.875 160.771L344.289 159.357C341.992 157.059 340.856 154.325 340.856 151.1H338.856ZM443.659 132.2H444.659V131.2H443.659V132.2ZM443.659 170V171H444.659V170H443.659ZM436.909 170L436.202 170.707L436.495 171H436.909V170ZM436.855 169.946L436.052 170.542L436.096 170.601L436.148 170.653L436.855 169.946ZM415.795 141.542L416.599 140.946L414.795 138.514V141.542H415.795ZM414.823 153.26L414.137 152.533L414.126 152.543L414.116 152.553L414.823 153.26ZM409.423 154.178H408.423V155.178H409.423V154.178ZM409.423 132.2V131.2H408.423V132.2H409.423ZM416.173 132.2L416.88 131.493L416.588 131.2H416.173V132.2ZM416.227 132.254L417.031 131.658L416.987 131.599L416.934 131.547L416.227 132.254ZM437.287 160.658L436.484 161.254L438.287 163.686V160.658H437.287ZM438.287 135.386C438.287 134.788 438.488 134.304 438.912 133.879L437.498 132.465C436.699 133.264 436.287 134.256 436.287 135.386H438.287ZM438.912 133.879C439.386 133.406 439.892 133.2 440.473 133.2V131.2C439.327 131.2 438.321 131.642 437.498 132.465L438.912 133.879ZM440.473 133.2H443.659V131.2H440.473V133.2ZM442.659 132.2V170H444.659V132.2H442.659ZM443.659 169H436.909V171H443.659V169ZM437.616 169.293L437.562 169.239L436.148 170.653L436.202 170.707L437.616 169.293ZM437.659 169.35L416.599 140.946L414.992 142.138L436.052 170.542L437.659 169.35ZM414.795 141.542V150.992H416.795V141.542H414.795ZM414.795 150.992C414.795 151.62 414.583 152.112 414.137 152.533L415.51 153.987C416.36 153.184 416.795 152.164 416.795 150.992H414.795ZM414.116 152.553C413.691 152.978 413.208 153.178 412.609 153.178V155.178C413.739 155.178 414.731 154.766 415.53 153.967L414.116 152.553ZM412.609 153.178H409.423V155.178H412.609V153.178ZM410.423 154.178V132.2H408.423V154.178H410.423ZM409.423 133.2H416.173V131.2H409.423V133.2ZM415.466 132.907L415.52 132.961L416.934 131.547L416.88 131.493L415.466 132.907ZM415.424 132.85L436.484 161.254L438.091 160.062L417.031 131.658L415.424 132.85ZM438.287 160.658V135.386H436.287V160.658H438.287Z" fill="#DCDCDC" mask="url(#path-2-outside-1_5_3)"/>
<defs>
<linearGradient id="paint0_linear_5_3" x1="231.725" y1="59.2081" x2="163.422" y2="108.145" gradientUnits="userSpaceOnUse">
<stop stop-color="#D64206"/>
<stop offset="1" stop-color="#391608"/>
</linearGradient>
</defs>
</svg>
